M48
; DRILL file {KiCad 8.0.3} date 2024-06-24T13:26:40+0200
; FORMAT={-:-/ absolute / metric / decimal}
; #@! TF.CreationDate,2024-06-24T13:26:40+02:00
; #@! TF.GenerationSoftware,Kicad,Pcbnew,8.0.3
; #@! TF.FileFunction,Plated,1,2,PTH
FMAT,2
METRIC
; #@! TA.AperFunction,Plated,PTH,ViaDrill
T1C0.300
; #@! TA.AperFunction,Plated,PTH,ComponentDrill
T2C1.000
%
G90
G05
T1
X83.312Y-77.216
X83.566Y-82.55
X85.344Y-72.644
X85.344Y-77.216
X87.122Y-69.85
X87.122Y-80.01
X88.9Y-67.31
X91.44Y-73.406
X97.014Y-70.358
X97.014Y-71.12
X97.028Y-71.882
X105.41Y-71.12
X105.41Y-76.2
X109.22Y-73.914
X112.21Y-71.628
X113.876Y-73.66
X115.723Y-78.333
X116.967Y-78.613
X117.008Y-77.556
X118.052Y-77.528
X118.067Y-73.957
X118.11Y-76.454
X118.618Y-69.088
X119.253Y-74.041
X119.253Y-76.327
X120.142Y-69.596
X120.142Y-70.866
X120.142Y-75.184
X121.412Y-81.534
X123.444Y-75.438
X124.417Y-74.465
X125.208Y-74.584
X125.222Y-67.564
X127.762Y-82.804
X129.794Y-80.264
T2
X93.98Y-66.04
X93.98Y-83.82
X96.52Y-66.04
X96.52Y-83.82
X99.06Y-66.04
X99.06Y-83.82
X101.6Y-66.04
X101.6Y-83.82
X104.14Y-66.04
X104.14Y-83.82
X106.68Y-66.04
X106.68Y-83.82
X109.22Y-66.04
X109.22Y-83.82
X111.76Y-66.04
X111.76Y-83.82
X114.3Y-66.04
X114.3Y-83.82
X116.84Y-66.04
X116.84Y-83.82
X129.54Y-66.294
X129.54Y-68.834
X129.54Y-71.374
X129.54Y-73.914
X129.54Y-76.454
M30
