G04 #@! TF.GenerationSoftware,KiCad,Pcbnew,8.0.3*
G04 #@! TF.CreationDate,2024-06-24T13:25:16+02:00*
G04 #@! TF.ProjectId,LimbusZero,4c696d62-7573-45a6-9572-6f2e6b696361,v.0.1*
G04 #@! TF.SameCoordinates,Original*
G04 #@! TF.FileFunction,Legend,Top*
G04 #@! TF.FilePolarity,Positive*
%FSLAX46Y46*%
G04 Gerber Fmt 4.6, Leading zero omitted, Abs format (unit mm)*
G04 Created by KiCad (PCBNEW 8.0.3) date 2024-06-24 13:25:16*
%MOMM*%
%LPD*%
G01*
G04 APERTURE LIST*
G04 Aperture macros list*
%AMRoundRect*
0 Rectangle with rounded corners*
0 $1 Rounding radius*
0 $2 $3 $4 $5 $6 $7 $8 $9 X,Y pos of 4 corners*
0 Add a 4 corners polygon primitive as box body*
4,1,4,$2,$3,$4,$5,$6,$7,$8,$9,$2,$3,0*
0 Add four circle primitives for the rounded corners*
1,1,$1+$1,$2,$3*
1,1,$1+$1,$4,$5*
1,1,$1+$1,$6,$7*
1,1,$1+$1,$8,$9*
0 Add four rect primitives between the rounded corners*
20,1,$1+$1,$2,$3,$4,$5,0*
20,1,$1+$1,$4,$5,$6,$7,0*
20,1,$1+$1,$6,$7,$8,$9,0*
20,1,$1+$1,$8,$9,$2,$3,0*%
G04 Aperture macros list end*
%ADD10C,0.100000*%
%ADD11C,0.150000*%
%ADD12C,0.120000*%
%ADD13RoundRect,0.250000X-0.625000X0.312500X-0.625000X-0.312500X0.625000X-0.312500X0.625000X0.312500X0*%
%ADD14RoundRect,0.250000X-0.375000X-0.625000X0.375000X-0.625000X0.375000X0.625000X-0.375000X0.625000X0*%
%ADD15RoundRect,0.250000X-0.650000X0.325000X-0.650000X-0.325000X0.650000X-0.325000X0.650000X0.325000X0*%
%ADD16C,1.000000*%
%ADD17R,2.000000X0.500000*%
%ADD18R,1.700000X2.000000*%
%ADD19RoundRect,0.250000X0.625000X-0.375000X0.625000X0.375000X-0.625000X0.375000X-0.625000X-0.375000X0*%
%ADD20RoundRect,0.375000X-0.625000X-0.375000X0.625000X-0.375000X0.625000X0.375000X-0.625000X0.375000X0*%
%ADD21RoundRect,0.500000X-0.500000X-1.400000X0.500000X-1.400000X0.500000X1.400000X-0.500000X1.400000X0*%
%ADD22RoundRect,0.250000X0.375000X0.625000X-0.375000X0.625000X-0.375000X-0.625000X0.375000X-0.625000X0*%
%ADD23R,1.700000X1.700000*%
%ADD24O,1.700000X1.700000*%
%ADD25RoundRect,0.150000X0.825000X0.150000X-0.825000X0.150000X-0.825000X-0.150000X0.825000X-0.150000X0*%
%ADD26RoundRect,0.250000X-0.325000X-0.650000X0.325000X-0.650000X0.325000X0.650000X-0.325000X0.650000X0*%
%ADD27RoundRect,0.125000X-0.530330X0.353553X0.353553X-0.530330X0.530330X-0.353553X-0.353553X0.530330X0*%
%ADD28RoundRect,0.125000X-0.530330X-0.353553X-0.353553X-0.530330X0.530330X0.353553X0.353553X0.530330X0*%
%ADD29RoundRect,0.250000X-0.312500X-0.625000X0.312500X-0.625000X0.312500X0.625000X-0.312500X0.625000X0*%
G04 APERTURE END LIST*
D10*
X93261705Y-69090074D02*
X94061705Y-68823407D01*
X94061705Y-68823407D02*
X93261705Y-68556741D01*
X94061705Y-68290074D02*
X93528371Y-68290074D01*
X93261705Y-68290074D02*
X93299800Y-68328170D01*
X93299800Y-68328170D02*
X93337895Y-68290074D01*
X93337895Y-68290074D02*
X93299800Y-68251979D01*
X93299800Y-68251979D02*
X93261705Y-68290074D01*
X93261705Y-68290074D02*
X93337895Y-68290074D01*
X93528371Y-67909122D02*
X94061705Y-67909122D01*
X93604562Y-67909122D02*
X93566467Y-67871027D01*
X93566467Y-67871027D02*
X93528371Y-67794837D01*
X93528371Y-67794837D02*
X93528371Y-67680551D01*
X93528371Y-67680551D02*
X93566467Y-67604360D01*
X93566467Y-67604360D02*
X93642657Y-67566265D01*
X93642657Y-67566265D02*
X94061705Y-67566265D01*
X95875710Y-69204360D02*
X95837615Y-69280550D01*
X95837615Y-69280550D02*
X95837615Y-69394836D01*
X95837615Y-69394836D02*
X95875710Y-69509122D01*
X95875710Y-69509122D02*
X95951900Y-69585312D01*
X95951900Y-69585312D02*
X96028091Y-69623407D01*
X96028091Y-69623407D02*
X96180472Y-69661503D01*
X96180472Y-69661503D02*
X96294758Y-69661503D01*
X96294758Y-69661503D02*
X96447139Y-69623407D01*
X96447139Y-69623407D02*
X96523329Y-69585312D01*
X96523329Y-69585312D02*
X96599520Y-69509122D01*
X96599520Y-69509122D02*
X96637615Y-69394836D01*
X96637615Y-69394836D02*
X96637615Y-69318645D01*
X96637615Y-69318645D02*
X96599520Y-69204360D01*
X96599520Y-69204360D02*
X96561424Y-69166264D01*
X96561424Y-69166264D02*
X96294758Y-69166264D01*
X96294758Y-69166264D02*
X96294758Y-69318645D01*
X96637615Y-68823407D02*
X95837615Y-68823407D01*
X95837615Y-68823407D02*
X96637615Y-68366264D01*
X96637615Y-68366264D02*
X95837615Y-68366264D01*
X96637615Y-67985312D02*
X95837615Y-67985312D01*
X95837615Y-67985312D02*
X95837615Y-67794836D01*
X95837615Y-67794836D02*
X95875710Y-67680550D01*
X95875710Y-67680550D02*
X95951900Y-67604360D01*
X95951900Y-67604360D02*
X96028091Y-67566265D01*
X96028091Y-67566265D02*
X96180472Y-67528169D01*
X96180472Y-67528169D02*
X96294758Y-67528169D01*
X96294758Y-67528169D02*
X96447139Y-67566265D01*
X96447139Y-67566265D02*
X96523329Y-67604360D01*
X96523329Y-67604360D02*
X96599520Y-67680550D01*
X96599520Y-67680550D02*
X96637615Y-67794836D01*
X96637615Y-67794836D02*
X96637615Y-67985312D01*
X98413525Y-68632931D02*
X98413525Y-68480550D01*
X98413525Y-68480550D02*
X98451620Y-68404360D01*
X98451620Y-68404360D02*
X98527810Y-68328169D01*
X98527810Y-68328169D02*
X98680191Y-68290074D01*
X98680191Y-68290074D02*
X98946858Y-68290074D01*
X98946858Y-68290074D02*
X99099239Y-68328169D01*
X99099239Y-68328169D02*
X99175430Y-68404360D01*
X99175430Y-68404360D02*
X99213525Y-68480550D01*
X99213525Y-68480550D02*
X99213525Y-68632931D01*
X99213525Y-68632931D02*
X99175430Y-68709122D01*
X99175430Y-68709122D02*
X99099239Y-68785312D01*
X99099239Y-68785312D02*
X98946858Y-68823408D01*
X98946858Y-68823408D02*
X98680191Y-68823408D01*
X98680191Y-68823408D02*
X98527810Y-68785312D01*
X98527810Y-68785312D02*
X98451620Y-68709122D01*
X98451620Y-68709122D02*
X98413525Y-68632931D01*
X99213525Y-67528170D02*
X99213525Y-67985313D01*
X99213525Y-67756741D02*
X98413525Y-67756741D01*
X98413525Y-67756741D02*
X98527810Y-67832932D01*
X98527810Y-67832932D02*
X98604001Y-67909122D01*
X98604001Y-67909122D02*
X98642096Y-67985313D01*
X100989435Y-68632931D02*
X100989435Y-68480550D01*
X100989435Y-68480550D02*
X101027530Y-68404360D01*
X101027530Y-68404360D02*
X101103720Y-68328169D01*
X101103720Y-68328169D02*
X101256101Y-68290074D01*
X101256101Y-68290074D02*
X101522768Y-68290074D01*
X101522768Y-68290074D02*
X101675149Y-68328169D01*
X101675149Y-68328169D02*
X101751340Y-68404360D01*
X101751340Y-68404360D02*
X101789435Y-68480550D01*
X101789435Y-68480550D02*
X101789435Y-68632931D01*
X101789435Y-68632931D02*
X101751340Y-68709122D01*
X101751340Y-68709122D02*
X101675149Y-68785312D01*
X101675149Y-68785312D02*
X101522768Y-68823408D01*
X101522768Y-68823408D02*
X101256101Y-68823408D01*
X101256101Y-68823408D02*
X101103720Y-68785312D01*
X101103720Y-68785312D02*
X101027530Y-68709122D01*
X101027530Y-68709122D02*
X100989435Y-68632931D01*
X101065625Y-67985313D02*
X101027530Y-67947217D01*
X101027530Y-67947217D02*
X100989435Y-67871027D01*
X100989435Y-67871027D02*
X100989435Y-67680551D01*
X100989435Y-67680551D02*
X101027530Y-67604360D01*
X101027530Y-67604360D02*
X101065625Y-67566265D01*
X101065625Y-67566265D02*
X101141816Y-67528170D01*
X101141816Y-67528170D02*
X101218006Y-67528170D01*
X101218006Y-67528170D02*
X101332292Y-67566265D01*
X101332292Y-67566265D02*
X101789435Y-68023408D01*
X101789435Y-68023408D02*
X101789435Y-67528170D01*
X103565345Y-68632931D02*
X103565345Y-68480550D01*
X103565345Y-68480550D02*
X103603440Y-68404360D01*
X103603440Y-68404360D02*
X103679630Y-68328169D01*
X103679630Y-68328169D02*
X103832011Y-68290074D01*
X103832011Y-68290074D02*
X104098678Y-68290074D01*
X104098678Y-68290074D02*
X104251059Y-68328169D01*
X104251059Y-68328169D02*
X104327250Y-68404360D01*
X104327250Y-68404360D02*
X104365345Y-68480550D01*
X104365345Y-68480550D02*
X104365345Y-68632931D01*
X104365345Y-68632931D02*
X104327250Y-68709122D01*
X104327250Y-68709122D02*
X104251059Y-68785312D01*
X104251059Y-68785312D02*
X104098678Y-68823408D01*
X104098678Y-68823408D02*
X103832011Y-68823408D01*
X103832011Y-68823408D02*
X103679630Y-68785312D01*
X103679630Y-68785312D02*
X103603440Y-68709122D01*
X103603440Y-68709122D02*
X103565345Y-68632931D01*
X103565345Y-68023408D02*
X103565345Y-67528170D01*
X103565345Y-67528170D02*
X103870107Y-67794836D01*
X103870107Y-67794836D02*
X103870107Y-67680551D01*
X103870107Y-67680551D02*
X103908202Y-67604360D01*
X103908202Y-67604360D02*
X103946297Y-67566265D01*
X103946297Y-67566265D02*
X104022488Y-67528170D01*
X104022488Y-67528170D02*
X104212964Y-67528170D01*
X104212964Y-67528170D02*
X104289154Y-67566265D01*
X104289154Y-67566265D02*
X104327250Y-67604360D01*
X104327250Y-67604360D02*
X104365345Y-67680551D01*
X104365345Y-67680551D02*
X104365345Y-67909122D01*
X104365345Y-67909122D02*
X104327250Y-67985313D01*
X104327250Y-67985313D02*
X104289154Y-68023408D01*
X106141255Y-68632931D02*
X106141255Y-68480550D01*
X106141255Y-68480550D02*
X106179350Y-68404360D01*
X106179350Y-68404360D02*
X106255540Y-68328169D01*
X106255540Y-68328169D02*
X106407921Y-68290074D01*
X106407921Y-68290074D02*
X106674588Y-68290074D01*
X106674588Y-68290074D02*
X106826969Y-68328169D01*
X106826969Y-68328169D02*
X106903160Y-68404360D01*
X106903160Y-68404360D02*
X106941255Y-68480550D01*
X106941255Y-68480550D02*
X106941255Y-68632931D01*
X106941255Y-68632931D02*
X106903160Y-68709122D01*
X106903160Y-68709122D02*
X106826969Y-68785312D01*
X106826969Y-68785312D02*
X106674588Y-68823408D01*
X106674588Y-68823408D02*
X106407921Y-68823408D01*
X106407921Y-68823408D02*
X106255540Y-68785312D01*
X106255540Y-68785312D02*
X106179350Y-68709122D01*
X106179350Y-68709122D02*
X106141255Y-68632931D01*
X106407921Y-67604360D02*
X106941255Y-67604360D01*
X106103160Y-67794836D02*
X106674588Y-67985313D01*
X106674588Y-67985313D02*
X106674588Y-67490074D01*
X108717165Y-68632931D02*
X108717165Y-68480550D01*
X108717165Y-68480550D02*
X108755260Y-68404360D01*
X108755260Y-68404360D02*
X108831450Y-68328169D01*
X108831450Y-68328169D02*
X108983831Y-68290074D01*
X108983831Y-68290074D02*
X109250498Y-68290074D01*
X109250498Y-68290074D02*
X109402879Y-68328169D01*
X109402879Y-68328169D02*
X109479070Y-68404360D01*
X109479070Y-68404360D02*
X109517165Y-68480550D01*
X109517165Y-68480550D02*
X109517165Y-68632931D01*
X109517165Y-68632931D02*
X109479070Y-68709122D01*
X109479070Y-68709122D02*
X109402879Y-68785312D01*
X109402879Y-68785312D02*
X109250498Y-68823408D01*
X109250498Y-68823408D02*
X108983831Y-68823408D01*
X108983831Y-68823408D02*
X108831450Y-68785312D01*
X108831450Y-68785312D02*
X108755260Y-68709122D01*
X108755260Y-68709122D02*
X108717165Y-68632931D01*
X108717165Y-67566265D02*
X108717165Y-67947217D01*
X108717165Y-67947217D02*
X109098117Y-67985313D01*
X109098117Y-67985313D02*
X109060022Y-67947217D01*
X109060022Y-67947217D02*
X109021927Y-67871027D01*
X109021927Y-67871027D02*
X109021927Y-67680551D01*
X109021927Y-67680551D02*
X109060022Y-67604360D01*
X109060022Y-67604360D02*
X109098117Y-67566265D01*
X109098117Y-67566265D02*
X109174308Y-67528170D01*
X109174308Y-67528170D02*
X109364784Y-67528170D01*
X109364784Y-67528170D02*
X109440974Y-67566265D01*
X109440974Y-67566265D02*
X109479070Y-67604360D01*
X109479070Y-67604360D02*
X109517165Y-67680551D01*
X109517165Y-67680551D02*
X109517165Y-67871027D01*
X109517165Y-67871027D02*
X109479070Y-67947217D01*
X109479070Y-67947217D02*
X109440974Y-67985313D01*
X111293075Y-68632931D02*
X111293075Y-68480550D01*
X111293075Y-68480550D02*
X111331170Y-68404360D01*
X111331170Y-68404360D02*
X111407360Y-68328169D01*
X111407360Y-68328169D02*
X111559741Y-68290074D01*
X111559741Y-68290074D02*
X111826408Y-68290074D01*
X111826408Y-68290074D02*
X111978789Y-68328169D01*
X111978789Y-68328169D02*
X112054980Y-68404360D01*
X112054980Y-68404360D02*
X112093075Y-68480550D01*
X112093075Y-68480550D02*
X112093075Y-68632931D01*
X112093075Y-68632931D02*
X112054980Y-68709122D01*
X112054980Y-68709122D02*
X111978789Y-68785312D01*
X111978789Y-68785312D02*
X111826408Y-68823408D01*
X111826408Y-68823408D02*
X111559741Y-68823408D01*
X111559741Y-68823408D02*
X111407360Y-68785312D01*
X111407360Y-68785312D02*
X111331170Y-68709122D01*
X111331170Y-68709122D02*
X111293075Y-68632931D01*
X111293075Y-67604360D02*
X111293075Y-67756741D01*
X111293075Y-67756741D02*
X111331170Y-67832932D01*
X111331170Y-67832932D02*
X111369265Y-67871027D01*
X111369265Y-67871027D02*
X111483551Y-67947217D01*
X111483551Y-67947217D02*
X111635932Y-67985313D01*
X111635932Y-67985313D02*
X111940694Y-67985313D01*
X111940694Y-67985313D02*
X112016884Y-67947217D01*
X112016884Y-67947217D02*
X112054980Y-67909122D01*
X112054980Y-67909122D02*
X112093075Y-67832932D01*
X112093075Y-67832932D02*
X112093075Y-67680551D01*
X112093075Y-67680551D02*
X112054980Y-67604360D01*
X112054980Y-67604360D02*
X112016884Y-67566265D01*
X112016884Y-67566265D02*
X111940694Y-67528170D01*
X111940694Y-67528170D02*
X111750218Y-67528170D01*
X111750218Y-67528170D02*
X111674027Y-67566265D01*
X111674027Y-67566265D02*
X111635932Y-67604360D01*
X111635932Y-67604360D02*
X111597837Y-67680551D01*
X111597837Y-67680551D02*
X111597837Y-67832932D01*
X111597837Y-67832932D02*
X111635932Y-67909122D01*
X111635932Y-67909122D02*
X111674027Y-67947217D01*
X111674027Y-67947217D02*
X111750218Y-67985313D01*
X113868985Y-68632931D02*
X113868985Y-68480550D01*
X113868985Y-68480550D02*
X113907080Y-68404360D01*
X113907080Y-68404360D02*
X113983270Y-68328169D01*
X113983270Y-68328169D02*
X114135651Y-68290074D01*
X114135651Y-68290074D02*
X114402318Y-68290074D01*
X114402318Y-68290074D02*
X114554699Y-68328169D01*
X114554699Y-68328169D02*
X114630890Y-68404360D01*
X114630890Y-68404360D02*
X114668985Y-68480550D01*
X114668985Y-68480550D02*
X114668985Y-68632931D01*
X114668985Y-68632931D02*
X114630890Y-68709122D01*
X114630890Y-68709122D02*
X114554699Y-68785312D01*
X114554699Y-68785312D02*
X114402318Y-68823408D01*
X114402318Y-68823408D02*
X114135651Y-68823408D01*
X114135651Y-68823408D02*
X113983270Y-68785312D01*
X113983270Y-68785312D02*
X113907080Y-68709122D01*
X113907080Y-68709122D02*
X113868985Y-68632931D01*
X113868985Y-68023408D02*
X113868985Y-67490074D01*
X113868985Y-67490074D02*
X114668985Y-67832932D01*
X116444895Y-68632931D02*
X116444895Y-68480550D01*
X116444895Y-68480550D02*
X116482990Y-68404360D01*
X116482990Y-68404360D02*
X116559180Y-68328169D01*
X116559180Y-68328169D02*
X116711561Y-68290074D01*
X116711561Y-68290074D02*
X116978228Y-68290074D01*
X116978228Y-68290074D02*
X117130609Y-68328169D01*
X117130609Y-68328169D02*
X117206800Y-68404360D01*
X117206800Y-68404360D02*
X117244895Y-68480550D01*
X117244895Y-68480550D02*
X117244895Y-68632931D01*
X117244895Y-68632931D02*
X117206800Y-68709122D01*
X117206800Y-68709122D02*
X117130609Y-68785312D01*
X117130609Y-68785312D02*
X116978228Y-68823408D01*
X116978228Y-68823408D02*
X116711561Y-68823408D01*
X116711561Y-68823408D02*
X116559180Y-68785312D01*
X116559180Y-68785312D02*
X116482990Y-68709122D01*
X116482990Y-68709122D02*
X116444895Y-68632931D01*
X116787752Y-67832932D02*
X116749657Y-67909122D01*
X116749657Y-67909122D02*
X116711561Y-67947217D01*
X116711561Y-67947217D02*
X116635371Y-67985313D01*
X116635371Y-67985313D02*
X116597276Y-67985313D01*
X116597276Y-67985313D02*
X116521085Y-67947217D01*
X116521085Y-67947217D02*
X116482990Y-67909122D01*
X116482990Y-67909122D02*
X116444895Y-67832932D01*
X116444895Y-67832932D02*
X116444895Y-67680551D01*
X116444895Y-67680551D02*
X116482990Y-67604360D01*
X116482990Y-67604360D02*
X116521085Y-67566265D01*
X116521085Y-67566265D02*
X116597276Y-67528170D01*
X116597276Y-67528170D02*
X116635371Y-67528170D01*
X116635371Y-67528170D02*
X116711561Y-67566265D01*
X116711561Y-67566265D02*
X116749657Y-67604360D01*
X116749657Y-67604360D02*
X116787752Y-67680551D01*
X116787752Y-67680551D02*
X116787752Y-67832932D01*
X116787752Y-67832932D02*
X116825847Y-67909122D01*
X116825847Y-67909122D02*
X116863942Y-67947217D01*
X116863942Y-67947217D02*
X116940133Y-67985313D01*
X116940133Y-67985313D02*
X117092514Y-67985313D01*
X117092514Y-67985313D02*
X117168704Y-67947217D01*
X117168704Y-67947217D02*
X117206800Y-67909122D01*
X117206800Y-67909122D02*
X117244895Y-67832932D01*
X117244895Y-67832932D02*
X117244895Y-67680551D01*
X117244895Y-67680551D02*
X117206800Y-67604360D01*
X117206800Y-67604360D02*
X117168704Y-67566265D01*
X117168704Y-67566265D02*
X117092514Y-67528170D01*
X117092514Y-67528170D02*
X116940133Y-67528170D01*
X116940133Y-67528170D02*
X116863942Y-67566265D01*
X116863942Y-67566265D02*
X116825847Y-67604360D01*
X116825847Y-67604360D02*
X116787752Y-67680551D01*
X93261705Y-81900020D02*
X93261705Y-81442877D01*
X94061705Y-81671449D02*
X93261705Y-81671449D01*
X93261705Y-81252401D02*
X94061705Y-80719067D01*
X93261705Y-80719067D02*
X94061705Y-81252401D01*
X96637615Y-81328591D02*
X96256662Y-81595258D01*
X96637615Y-81785734D02*
X95837615Y-81785734D01*
X95837615Y-81785734D02*
X95837615Y-81480972D01*
X95837615Y-81480972D02*
X95875710Y-81404782D01*
X95875710Y-81404782D02*
X95913805Y-81366687D01*
X95913805Y-81366687D02*
X95989996Y-81328591D01*
X95989996Y-81328591D02*
X96104281Y-81328591D01*
X96104281Y-81328591D02*
X96180472Y-81366687D01*
X96180472Y-81366687D02*
X96218567Y-81404782D01*
X96218567Y-81404782D02*
X96256662Y-81480972D01*
X96256662Y-81480972D02*
X96256662Y-81785734D01*
X95837615Y-81061925D02*
X96637615Y-80528591D01*
X95837615Y-80528591D02*
X96637615Y-81061925D01*
X98794477Y-81519068D02*
X98832572Y-81404782D01*
X98832572Y-81404782D02*
X98870668Y-81366687D01*
X98870668Y-81366687D02*
X98946858Y-81328591D01*
X98946858Y-81328591D02*
X99061144Y-81328591D01*
X99061144Y-81328591D02*
X99137334Y-81366687D01*
X99137334Y-81366687D02*
X99175430Y-81404782D01*
X99175430Y-81404782D02*
X99213525Y-81480972D01*
X99213525Y-81480972D02*
X99213525Y-81785734D01*
X99213525Y-81785734D02*
X98413525Y-81785734D01*
X98413525Y-81785734D02*
X98413525Y-81519068D01*
X98413525Y-81519068D02*
X98451620Y-81442877D01*
X98451620Y-81442877D02*
X98489715Y-81404782D01*
X98489715Y-81404782D02*
X98565906Y-81366687D01*
X98565906Y-81366687D02*
X98642096Y-81366687D01*
X98642096Y-81366687D02*
X98718287Y-81404782D01*
X98718287Y-81404782D02*
X98756382Y-81442877D01*
X98756382Y-81442877D02*
X98794477Y-81519068D01*
X98794477Y-81519068D02*
X98794477Y-81785734D01*
X99213525Y-80566687D02*
X99213525Y-81023830D01*
X99213525Y-80795258D02*
X98413525Y-80795258D01*
X98413525Y-80795258D02*
X98527810Y-80871449D01*
X98527810Y-80871449D02*
X98604001Y-80947639D01*
X98604001Y-80947639D02*
X98642096Y-81023830D01*
X101370387Y-81519068D02*
X101408482Y-81404782D01*
X101408482Y-81404782D02*
X101446578Y-81366687D01*
X101446578Y-81366687D02*
X101522768Y-81328591D01*
X101522768Y-81328591D02*
X101637054Y-81328591D01*
X101637054Y-81328591D02*
X101713244Y-81366687D01*
X101713244Y-81366687D02*
X101751340Y-81404782D01*
X101751340Y-81404782D02*
X101789435Y-81480972D01*
X101789435Y-81480972D02*
X101789435Y-81785734D01*
X101789435Y-81785734D02*
X100989435Y-81785734D01*
X100989435Y-81785734D02*
X100989435Y-81519068D01*
X100989435Y-81519068D02*
X101027530Y-81442877D01*
X101027530Y-81442877D02*
X101065625Y-81404782D01*
X101065625Y-81404782D02*
X101141816Y-81366687D01*
X101141816Y-81366687D02*
X101218006Y-81366687D01*
X101218006Y-81366687D02*
X101294197Y-81404782D01*
X101294197Y-81404782D02*
X101332292Y-81442877D01*
X101332292Y-81442877D02*
X101370387Y-81519068D01*
X101370387Y-81519068D02*
X101370387Y-81785734D01*
X101065625Y-81023830D02*
X101027530Y-80985734D01*
X101027530Y-80985734D02*
X100989435Y-80909544D01*
X100989435Y-80909544D02*
X100989435Y-80719068D01*
X100989435Y-80719068D02*
X101027530Y-80642877D01*
X101027530Y-80642877D02*
X101065625Y-80604782D01*
X101065625Y-80604782D02*
X101141816Y-80566687D01*
X101141816Y-80566687D02*
X101218006Y-80566687D01*
X101218006Y-80566687D02*
X101332292Y-80604782D01*
X101332292Y-80604782D02*
X101789435Y-81061925D01*
X101789435Y-81061925D02*
X101789435Y-80566687D01*
X103946297Y-81519068D02*
X103984392Y-81404782D01*
X103984392Y-81404782D02*
X104022488Y-81366687D01*
X104022488Y-81366687D02*
X104098678Y-81328591D01*
X104098678Y-81328591D02*
X104212964Y-81328591D01*
X104212964Y-81328591D02*
X104289154Y-81366687D01*
X104289154Y-81366687D02*
X104327250Y-81404782D01*
X104327250Y-81404782D02*
X104365345Y-81480972D01*
X104365345Y-81480972D02*
X104365345Y-81785734D01*
X104365345Y-81785734D02*
X103565345Y-81785734D01*
X103565345Y-81785734D02*
X103565345Y-81519068D01*
X103565345Y-81519068D02*
X103603440Y-81442877D01*
X103603440Y-81442877D02*
X103641535Y-81404782D01*
X103641535Y-81404782D02*
X103717726Y-81366687D01*
X103717726Y-81366687D02*
X103793916Y-81366687D01*
X103793916Y-81366687D02*
X103870107Y-81404782D01*
X103870107Y-81404782D02*
X103908202Y-81442877D01*
X103908202Y-81442877D02*
X103946297Y-81519068D01*
X103946297Y-81519068D02*
X103946297Y-81785734D01*
X103565345Y-81061925D02*
X103565345Y-80566687D01*
X103565345Y-80566687D02*
X103870107Y-80833353D01*
X103870107Y-80833353D02*
X103870107Y-80719068D01*
X103870107Y-80719068D02*
X103908202Y-80642877D01*
X103908202Y-80642877D02*
X103946297Y-80604782D01*
X103946297Y-80604782D02*
X104022488Y-80566687D01*
X104022488Y-80566687D02*
X104212964Y-80566687D01*
X104212964Y-80566687D02*
X104289154Y-80604782D01*
X104289154Y-80604782D02*
X104327250Y-80642877D01*
X104327250Y-80642877D02*
X104365345Y-80719068D01*
X104365345Y-80719068D02*
X104365345Y-80947639D01*
X104365345Y-80947639D02*
X104327250Y-81023830D01*
X104327250Y-81023830D02*
X104289154Y-81061925D01*
X106522207Y-81519068D02*
X106560302Y-81404782D01*
X106560302Y-81404782D02*
X106598398Y-81366687D01*
X106598398Y-81366687D02*
X106674588Y-81328591D01*
X106674588Y-81328591D02*
X106788874Y-81328591D01*
X106788874Y-81328591D02*
X106865064Y-81366687D01*
X106865064Y-81366687D02*
X106903160Y-81404782D01*
X106903160Y-81404782D02*
X106941255Y-81480972D01*
X106941255Y-81480972D02*
X106941255Y-81785734D01*
X106941255Y-81785734D02*
X106141255Y-81785734D01*
X106141255Y-81785734D02*
X106141255Y-81519068D01*
X106141255Y-81519068D02*
X106179350Y-81442877D01*
X106179350Y-81442877D02*
X106217445Y-81404782D01*
X106217445Y-81404782D02*
X106293636Y-81366687D01*
X106293636Y-81366687D02*
X106369826Y-81366687D01*
X106369826Y-81366687D02*
X106446017Y-81404782D01*
X106446017Y-81404782D02*
X106484112Y-81442877D01*
X106484112Y-81442877D02*
X106522207Y-81519068D01*
X106522207Y-81519068D02*
X106522207Y-81785734D01*
X106407921Y-80642877D02*
X106941255Y-80642877D01*
X106103160Y-80833353D02*
X106674588Y-81023830D01*
X106674588Y-81023830D02*
X106674588Y-80528591D01*
X109517165Y-81785734D02*
X108717165Y-81785734D01*
X108983831Y-81404782D02*
X109517165Y-81404782D01*
X109060022Y-81404782D02*
X109021927Y-81366687D01*
X109021927Y-81366687D02*
X108983831Y-81290497D01*
X108983831Y-81290497D02*
X108983831Y-81176211D01*
X108983831Y-81176211D02*
X109021927Y-81100020D01*
X109021927Y-81100020D02*
X109098117Y-81061925D01*
X109098117Y-81061925D02*
X109517165Y-81061925D01*
X109479070Y-80338115D02*
X109517165Y-80414306D01*
X109517165Y-80414306D02*
X109517165Y-80566687D01*
X109517165Y-80566687D02*
X109479070Y-80642877D01*
X109479070Y-80642877D02*
X109440974Y-80680972D01*
X109440974Y-80680972D02*
X109364784Y-80719068D01*
X109364784Y-80719068D02*
X109136212Y-80719068D01*
X109136212Y-80719068D02*
X109060022Y-80680972D01*
X109060022Y-80680972D02*
X109021927Y-80642877D01*
X109021927Y-80642877D02*
X108983831Y-80566687D01*
X108983831Y-80566687D02*
X108983831Y-80414306D01*
X108983831Y-80414306D02*
X109021927Y-80338115D01*
X109288593Y-80033354D02*
X109288593Y-79652401D01*
X109517165Y-80109544D02*
X108717165Y-79842877D01*
X108717165Y-79842877D02*
X109517165Y-79576211D01*
X112093075Y-81785734D02*
X111293075Y-81785734D01*
X111559741Y-81404782D02*
X112093075Y-81404782D01*
X111635932Y-81404782D02*
X111597837Y-81366687D01*
X111597837Y-81366687D02*
X111559741Y-81290497D01*
X111559741Y-81290497D02*
X111559741Y-81176211D01*
X111559741Y-81176211D02*
X111597837Y-81100020D01*
X111597837Y-81100020D02*
X111674027Y-81061925D01*
X111674027Y-81061925D02*
X112093075Y-81061925D01*
X112054980Y-80338115D02*
X112093075Y-80414306D01*
X112093075Y-80414306D02*
X112093075Y-80566687D01*
X112093075Y-80566687D02*
X112054980Y-80642877D01*
X112054980Y-80642877D02*
X112016884Y-80680972D01*
X112016884Y-80680972D02*
X111940694Y-80719068D01*
X111940694Y-80719068D02*
X111712122Y-80719068D01*
X111712122Y-80719068D02*
X111635932Y-80680972D01*
X111635932Y-80680972D02*
X111597837Y-80642877D01*
X111597837Y-80642877D02*
X111559741Y-80566687D01*
X111559741Y-80566687D02*
X111559741Y-80414306D01*
X111559741Y-80414306D02*
X111597837Y-80338115D01*
X111674027Y-79728592D02*
X111712122Y-79614306D01*
X111712122Y-79614306D02*
X111750218Y-79576211D01*
X111750218Y-79576211D02*
X111826408Y-79538115D01*
X111826408Y-79538115D02*
X111940694Y-79538115D01*
X111940694Y-79538115D02*
X112016884Y-79576211D01*
X112016884Y-79576211D02*
X112054980Y-79614306D01*
X112054980Y-79614306D02*
X112093075Y-79690496D01*
X112093075Y-79690496D02*
X112093075Y-79995258D01*
X112093075Y-79995258D02*
X111293075Y-79995258D01*
X111293075Y-79995258D02*
X111293075Y-79728592D01*
X111293075Y-79728592D02*
X111331170Y-79652401D01*
X111331170Y-79652401D02*
X111369265Y-79614306D01*
X111369265Y-79614306D02*
X111445456Y-79576211D01*
X111445456Y-79576211D02*
X111521646Y-79576211D01*
X111521646Y-79576211D02*
X111597837Y-79614306D01*
X111597837Y-79614306D02*
X111635932Y-79652401D01*
X111635932Y-79652401D02*
X111674027Y-79728592D01*
X111674027Y-79728592D02*
X111674027Y-79995258D01*
X114668985Y-81785734D02*
X113868985Y-81785734D01*
X113868985Y-81785734D02*
X113868985Y-81480972D01*
X113868985Y-81480972D02*
X113907080Y-81404782D01*
X113907080Y-81404782D02*
X113945175Y-81366687D01*
X113945175Y-81366687D02*
X114021366Y-81328591D01*
X114021366Y-81328591D02*
X114135651Y-81328591D01*
X114135651Y-81328591D02*
X114211842Y-81366687D01*
X114211842Y-81366687D02*
X114249937Y-81404782D01*
X114249937Y-81404782D02*
X114288032Y-81480972D01*
X114288032Y-81480972D02*
X114288032Y-81785734D01*
X117244895Y-81785734D02*
X116444895Y-81785734D01*
X116444895Y-81785734D02*
X116444895Y-81595258D01*
X116444895Y-81595258D02*
X116482990Y-81480972D01*
X116482990Y-81480972D02*
X116559180Y-81404782D01*
X116559180Y-81404782D02*
X116635371Y-81366687D01*
X116635371Y-81366687D02*
X116787752Y-81328591D01*
X116787752Y-81328591D02*
X116902038Y-81328591D01*
X116902038Y-81328591D02*
X117054419Y-81366687D01*
X117054419Y-81366687D02*
X117130609Y-81404782D01*
X117130609Y-81404782D02*
X117206800Y-81480972D01*
X117206800Y-81480972D02*
X117244895Y-81595258D01*
X117244895Y-81595258D02*
X117244895Y-81785734D01*
D11*
X127454819Y-67476666D02*
X126978628Y-67809999D01*
X127454819Y-68048094D02*
X126454819Y-68048094D01*
X126454819Y-68048094D02*
X126454819Y-67667142D01*
X126454819Y-67667142D02*
X126502438Y-67571904D01*
X126502438Y-67571904D02*
X126550057Y-67524285D01*
X126550057Y-67524285D02*
X126645295Y-67476666D01*
X126645295Y-67476666D02*
X126788152Y-67476666D01*
X126788152Y-67476666D02*
X126883390Y-67524285D01*
X126883390Y-67524285D02*
X126931009Y-67571904D01*
X126931009Y-67571904D02*
X126978628Y-67667142D01*
X126978628Y-67667142D02*
X126978628Y-68048094D01*
X127454819Y-66524285D02*
X127454819Y-67095713D01*
X127454819Y-66809999D02*
X126454819Y-66809999D01*
X126454819Y-66809999D02*
X126597676Y-66905237D01*
X126597676Y-66905237D02*
X126692914Y-67000475D01*
X126692914Y-67000475D02*
X126740533Y-67095713D01*
X82951906Y-85036819D02*
X82951906Y-84036819D01*
X82951906Y-84036819D02*
X83190001Y-84036819D01*
X83190001Y-84036819D02*
X83332858Y-84084438D01*
X83332858Y-84084438D02*
X83428096Y-84179676D01*
X83428096Y-84179676D02*
X83475715Y-84274914D01*
X83475715Y-84274914D02*
X83523334Y-84465390D01*
X83523334Y-84465390D02*
X83523334Y-84608247D01*
X83523334Y-84608247D02*
X83475715Y-84798723D01*
X83475715Y-84798723D02*
X83428096Y-84893961D01*
X83428096Y-84893961D02*
X83332858Y-84989200D01*
X83332858Y-84989200D02*
X83190001Y-85036819D01*
X83190001Y-85036819D02*
X82951906Y-85036819D01*
X83904287Y-84132057D02*
X83951906Y-84084438D01*
X83951906Y-84084438D02*
X84047144Y-84036819D01*
X84047144Y-84036819D02*
X84285239Y-84036819D01*
X84285239Y-84036819D02*
X84380477Y-84084438D01*
X84380477Y-84084438D02*
X84428096Y-84132057D01*
X84428096Y-84132057D02*
X84475715Y-84227295D01*
X84475715Y-84227295D02*
X84475715Y-84322533D01*
X84475715Y-84322533D02*
X84428096Y-84465390D01*
X84428096Y-84465390D02*
X83856668Y-85036819D01*
X83856668Y-85036819D02*
X84475715Y-85036819D01*
X107619581Y-76366666D02*
X107667201Y-76414285D01*
X107667201Y-76414285D02*
X107714820Y-76557142D01*
X107714820Y-76557142D02*
X107714820Y-76652380D01*
X107714820Y-76652380D02*
X107667201Y-76795237D01*
X107667201Y-76795237D02*
X107571962Y-76890475D01*
X107571962Y-76890475D02*
X107476724Y-76938094D01*
X107476724Y-76938094D02*
X107286248Y-76985713D01*
X107286248Y-76985713D02*
X107143391Y-76985713D01*
X107143391Y-76985713D02*
X106952915Y-76938094D01*
X106952915Y-76938094D02*
X106857677Y-76890475D01*
X106857677Y-76890475D02*
X106762439Y-76795237D01*
X106762439Y-76795237D02*
X106714820Y-76652380D01*
X106714820Y-76652380D02*
X106714820Y-76557142D01*
X106714820Y-76557142D02*
X106762439Y-76414285D01*
X106762439Y-76414285D02*
X106810058Y-76366666D01*
X107714820Y-75414285D02*
X107714820Y-75985713D01*
X107714820Y-75699999D02*
X106714820Y-75699999D01*
X106714820Y-75699999D02*
X106857677Y-75795237D01*
X106857677Y-75795237D02*
X106952915Y-75890475D01*
X106952915Y-75890475D02*
X107000534Y-75985713D01*
X107619581Y-71286666D02*
X107667201Y-71334285D01*
X107667201Y-71334285D02*
X107714820Y-71477142D01*
X107714820Y-71477142D02*
X107714820Y-71572380D01*
X107714820Y-71572380D02*
X107667201Y-71715237D01*
X107667201Y-71715237D02*
X107571962Y-71810475D01*
X107571962Y-71810475D02*
X107476724Y-71858094D01*
X107476724Y-71858094D02*
X107286248Y-71905713D01*
X107286248Y-71905713D02*
X107143391Y-71905713D01*
X107143391Y-71905713D02*
X106952915Y-71858094D01*
X106952915Y-71858094D02*
X106857677Y-71810475D01*
X106857677Y-71810475D02*
X106762439Y-71715237D01*
X106762439Y-71715237D02*
X106714820Y-71572380D01*
X106714820Y-71572380D02*
X106714820Y-71477142D01*
X106714820Y-71477142D02*
X106762439Y-71334285D01*
X106762439Y-71334285D02*
X106810058Y-71286666D01*
X107048153Y-70429523D02*
X107714820Y-70429523D01*
X106667201Y-70667618D02*
X107381486Y-70905713D01*
X107381486Y-70905713D02*
X107381486Y-70286666D01*
X92164819Y-79073333D02*
X92879104Y-79073333D01*
X92879104Y-79073333D02*
X93021961Y-79120952D01*
X93021961Y-79120952D02*
X93117200Y-79216190D01*
X93117200Y-79216190D02*
X93164819Y-79359047D01*
X93164819Y-79359047D02*
X93164819Y-79454285D01*
X92260057Y-78644761D02*
X92212438Y-78597142D01*
X92212438Y-78597142D02*
X92164819Y-78501904D01*
X92164819Y-78501904D02*
X92164819Y-78263809D01*
X92164819Y-78263809D02*
X92212438Y-78168571D01*
X92212438Y-78168571D02*
X92260057Y-78120952D01*
X92260057Y-78120952D02*
X92355295Y-78073333D01*
X92355295Y-78073333D02*
X92450533Y-78073333D01*
X92450533Y-78073333D02*
X92593390Y-78120952D01*
X92593390Y-78120952D02*
X93164819Y-78692380D01*
X93164819Y-78692380D02*
X93164819Y-78073333D01*
X120088819Y-68048094D02*
X119088819Y-68048094D01*
X119088819Y-68048094D02*
X119088819Y-67809999D01*
X119088819Y-67809999D02*
X119136438Y-67667142D01*
X119136438Y-67667142D02*
X119231676Y-67571904D01*
X119231676Y-67571904D02*
X119326914Y-67524285D01*
X119326914Y-67524285D02*
X119517390Y-67476666D01*
X119517390Y-67476666D02*
X119660247Y-67476666D01*
X119660247Y-67476666D02*
X119850723Y-67524285D01*
X119850723Y-67524285D02*
X119945961Y-67571904D01*
X119945961Y-67571904D02*
X120041200Y-67667142D01*
X120041200Y-67667142D02*
X120088819Y-67809999D01*
X120088819Y-67809999D02*
X120088819Y-68048094D01*
X120088819Y-66524285D02*
X120088819Y-67095713D01*
X120088819Y-66809999D02*
X119088819Y-66809999D01*
X119088819Y-66809999D02*
X119231676Y-66905237D01*
X119231676Y-66905237D02*
X119326914Y-67000475D01*
X119326914Y-67000475D02*
X119374533Y-67095713D01*
X97536095Y-77432819D02*
X97536095Y-78242342D01*
X97536095Y-78242342D02*
X97583714Y-78337580D01*
X97583714Y-78337580D02*
X97631333Y-78385200D01*
X97631333Y-78385200D02*
X97726571Y-78432819D01*
X97726571Y-78432819D02*
X97917047Y-78432819D01*
X97917047Y-78432819D02*
X98012285Y-78385200D01*
X98012285Y-78385200D02*
X98059904Y-78337580D01*
X98059904Y-78337580D02*
X98107523Y-78242342D01*
X98107523Y-78242342D02*
X98107523Y-77432819D01*
X99107523Y-78432819D02*
X98536095Y-78432819D01*
X98821809Y-78432819D02*
X98821809Y-77432819D01*
X98821809Y-77432819D02*
X98726571Y-77575676D01*
X98726571Y-77575676D02*
X98631333Y-77670914D01*
X98631333Y-77670914D02*
X98536095Y-77718533D01*
X83081905Y-65732819D02*
X83081905Y-64732819D01*
X83081905Y-64732819D02*
X83320000Y-64732819D01*
X83320000Y-64732819D02*
X83462857Y-64780438D01*
X83462857Y-64780438D02*
X83558095Y-64875676D01*
X83558095Y-64875676D02*
X83605714Y-64970914D01*
X83605714Y-64970914D02*
X83653333Y-65161390D01*
X83653333Y-65161390D02*
X83653333Y-65304247D01*
X83653333Y-65304247D02*
X83605714Y-65494723D01*
X83605714Y-65494723D02*
X83558095Y-65589961D01*
X83558095Y-65589961D02*
X83462857Y-65685200D01*
X83462857Y-65685200D02*
X83320000Y-65732819D01*
X83320000Y-65732819D02*
X83081905Y-65732819D01*
X83986667Y-64732819D02*
X84605714Y-64732819D01*
X84605714Y-64732819D02*
X84272381Y-65113771D01*
X84272381Y-65113771D02*
X84415238Y-65113771D01*
X84415238Y-65113771D02*
X84510476Y-65161390D01*
X84510476Y-65161390D02*
X84558095Y-65209009D01*
X84558095Y-65209009D02*
X84605714Y-65304247D01*
X84605714Y-65304247D02*
X84605714Y-65542342D01*
X84605714Y-65542342D02*
X84558095Y-65637580D01*
X84558095Y-65637580D02*
X84510476Y-65685200D01*
X84510476Y-65685200D02*
X84415238Y-65732819D01*
X84415238Y-65732819D02*
X84129524Y-65732819D01*
X84129524Y-65732819D02*
X84034286Y-65685200D01*
X84034286Y-65685200D02*
X83986667Y-65637580D01*
X134540666Y-74638819D02*
X134540666Y-75353104D01*
X134540666Y-75353104D02*
X134493047Y-75495961D01*
X134493047Y-75495961D02*
X134397809Y-75591200D01*
X134397809Y-75591200D02*
X134254952Y-75638819D01*
X134254952Y-75638819D02*
X134159714Y-75638819D01*
X135540666Y-75638819D02*
X134969238Y-75638819D01*
X135254952Y-75638819D02*
X135254952Y-74638819D01*
X135254952Y-74638819D02*
X135159714Y-74781676D01*
X135159714Y-74781676D02*
X135064476Y-74876914D01*
X135064476Y-74876914D02*
X134969238Y-74924533D01*
X132842095Y-79464819D02*
X132842095Y-80274342D01*
X132842095Y-80274342D02*
X132889714Y-80369580D01*
X132889714Y-80369580D02*
X132937333Y-80417200D01*
X132937333Y-80417200D02*
X133032571Y-80464819D01*
X133032571Y-80464819D02*
X133223047Y-80464819D01*
X133223047Y-80464819D02*
X133318285Y-80417200D01*
X133318285Y-80417200D02*
X133365904Y-80369580D01*
X133365904Y-80369580D02*
X133413523Y-80274342D01*
X133413523Y-80274342D02*
X133413523Y-79464819D01*
X133842095Y-79560057D02*
X133889714Y-79512438D01*
X133889714Y-79512438D02*
X133984952Y-79464819D01*
X133984952Y-79464819D02*
X134223047Y-79464819D01*
X134223047Y-79464819D02*
X134318285Y-79512438D01*
X134318285Y-79512438D02*
X134365904Y-79560057D01*
X134365904Y-79560057D02*
X134413523Y-79655295D01*
X134413523Y-79655295D02*
X134413523Y-79750533D01*
X134413523Y-79750533D02*
X134365904Y-79893390D01*
X134365904Y-79893390D02*
X133794476Y-80464819D01*
X133794476Y-80464819D02*
X134413523Y-80464819D01*
X88733333Y-65637580D02*
X88685714Y-65685200D01*
X88685714Y-65685200D02*
X88542857Y-65732819D01*
X88542857Y-65732819D02*
X88447619Y-65732819D01*
X88447619Y-65732819D02*
X88304762Y-65685200D01*
X88304762Y-65685200D02*
X88209524Y-65589961D01*
X88209524Y-65589961D02*
X88161905Y-65494723D01*
X88161905Y-65494723D02*
X88114286Y-65304247D01*
X88114286Y-65304247D02*
X88114286Y-65161390D01*
X88114286Y-65161390D02*
X88161905Y-64970914D01*
X88161905Y-64970914D02*
X88209524Y-64875676D01*
X88209524Y-64875676D02*
X88304762Y-64780438D01*
X88304762Y-64780438D02*
X88447619Y-64732819D01*
X88447619Y-64732819D02*
X88542857Y-64732819D01*
X88542857Y-64732819D02*
X88685714Y-64780438D01*
X88685714Y-64780438D02*
X88733333Y-64828057D01*
X89114286Y-64828057D02*
X89161905Y-64780438D01*
X89161905Y-64780438D02*
X89257143Y-64732819D01*
X89257143Y-64732819D02*
X89495238Y-64732819D01*
X89495238Y-64732819D02*
X89590476Y-64780438D01*
X89590476Y-64780438D02*
X89638095Y-64828057D01*
X89638095Y-64828057D02*
X89685714Y-64923295D01*
X89685714Y-64923295D02*
X89685714Y-65018533D01*
X89685714Y-65018533D02*
X89638095Y-65161390D01*
X89638095Y-65161390D02*
X89066667Y-65732819D01*
X89066667Y-65732819D02*
X89685714Y-65732819D01*
X122174095Y-77432819D02*
X122174095Y-78242342D01*
X122174095Y-78242342D02*
X122221714Y-78337580D01*
X122221714Y-78337580D02*
X122269333Y-78385200D01*
X122269333Y-78385200D02*
X122364571Y-78432819D01*
X122364571Y-78432819D02*
X122555047Y-78432819D01*
X122555047Y-78432819D02*
X122650285Y-78385200D01*
X122650285Y-78385200D02*
X122697904Y-78337580D01*
X122697904Y-78337580D02*
X122745523Y-78242342D01*
X122745523Y-78242342D02*
X122745523Y-77432819D01*
X123126476Y-77432819D02*
X123745523Y-77432819D01*
X123745523Y-77432819D02*
X123412190Y-77813771D01*
X123412190Y-77813771D02*
X123555047Y-77813771D01*
X123555047Y-77813771D02*
X123650285Y-77861390D01*
X123650285Y-77861390D02*
X123697904Y-77909009D01*
X123697904Y-77909009D02*
X123745523Y-78004247D01*
X123745523Y-78004247D02*
X123745523Y-78242342D01*
X123745523Y-78242342D02*
X123697904Y-78337580D01*
X123697904Y-78337580D02*
X123650285Y-78385200D01*
X123650285Y-78385200D02*
X123555047Y-78432819D01*
X123555047Y-78432819D02*
X123269333Y-78432819D01*
X123269333Y-78432819D02*
X123174095Y-78385200D01*
X123174095Y-78385200D02*
X123126476Y-78337580D01*
X111429581Y-71286666D02*
X111477201Y-71334285D01*
X111477201Y-71334285D02*
X111524820Y-71477142D01*
X111524820Y-71477142D02*
X111524820Y-71572380D01*
X111524820Y-71572380D02*
X111477201Y-71715237D01*
X111477201Y-71715237D02*
X111381962Y-71810475D01*
X111381962Y-71810475D02*
X111286724Y-71858094D01*
X111286724Y-71858094D02*
X111096248Y-71905713D01*
X111096248Y-71905713D02*
X110953391Y-71905713D01*
X110953391Y-71905713D02*
X110762915Y-71858094D01*
X110762915Y-71858094D02*
X110667677Y-71810475D01*
X110667677Y-71810475D02*
X110572439Y-71715237D01*
X110572439Y-71715237D02*
X110524820Y-71572380D01*
X110524820Y-71572380D02*
X110524820Y-71477142D01*
X110524820Y-71477142D02*
X110572439Y-71334285D01*
X110572439Y-71334285D02*
X110620058Y-71286666D01*
X110524820Y-70381904D02*
X110524820Y-70858094D01*
X110524820Y-70858094D02*
X111001010Y-70905713D01*
X111001010Y-70905713D02*
X110953391Y-70858094D01*
X110953391Y-70858094D02*
X110905772Y-70762856D01*
X110905772Y-70762856D02*
X110905772Y-70524761D01*
X110905772Y-70524761D02*
X110953391Y-70429523D01*
X110953391Y-70429523D02*
X111001010Y-70381904D01*
X111001010Y-70381904D02*
X111096248Y-70334285D01*
X111096248Y-70334285D02*
X111334343Y-70334285D01*
X111334343Y-70334285D02*
X111429581Y-70381904D01*
X111429581Y-70381904D02*
X111477201Y-70429523D01*
X111477201Y-70429523D02*
X111524820Y-70524761D01*
X111524820Y-70524761D02*
X111524820Y-70762856D01*
X111524820Y-70762856D02*
X111477201Y-70858094D01*
X111477201Y-70858094D02*
X111429581Y-70905713D01*
X88733333Y-85036819D02*
X88400000Y-84560628D01*
X88161905Y-85036819D02*
X88161905Y-84036819D01*
X88161905Y-84036819D02*
X88542857Y-84036819D01*
X88542857Y-84036819D02*
X88638095Y-84084438D01*
X88638095Y-84084438D02*
X88685714Y-84132057D01*
X88685714Y-84132057D02*
X88733333Y-84227295D01*
X88733333Y-84227295D02*
X88733333Y-84370152D01*
X88733333Y-84370152D02*
X88685714Y-84465390D01*
X88685714Y-84465390D02*
X88638095Y-84513009D01*
X88638095Y-84513009D02*
X88542857Y-84560628D01*
X88542857Y-84560628D02*
X88161905Y-84560628D01*
X89114286Y-84132057D02*
X89161905Y-84084438D01*
X89161905Y-84084438D02*
X89257143Y-84036819D01*
X89257143Y-84036819D02*
X89495238Y-84036819D01*
X89495238Y-84036819D02*
X89590476Y-84084438D01*
X89590476Y-84084438D02*
X89638095Y-84132057D01*
X89638095Y-84132057D02*
X89685714Y-84227295D01*
X89685714Y-84227295D02*
X89685714Y-84322533D01*
X89685714Y-84322533D02*
X89638095Y-84465390D01*
X89638095Y-84465390D02*
X89066667Y-85036819D01*
X89066667Y-85036819D02*
X89685714Y-85036819D01*
X121517580Y-82970666D02*
X121565200Y-83018285D01*
X121565200Y-83018285D02*
X121612819Y-83161142D01*
X121612819Y-83161142D02*
X121612819Y-83256380D01*
X121612819Y-83256380D02*
X121565200Y-83399237D01*
X121565200Y-83399237D02*
X121469961Y-83494475D01*
X121469961Y-83494475D02*
X121374723Y-83542094D01*
X121374723Y-83542094D02*
X121184247Y-83589713D01*
X121184247Y-83589713D02*
X121041390Y-83589713D01*
X121041390Y-83589713D02*
X120850914Y-83542094D01*
X120850914Y-83542094D02*
X120755676Y-83494475D01*
X120755676Y-83494475D02*
X120660438Y-83399237D01*
X120660438Y-83399237D02*
X120612819Y-83256380D01*
X120612819Y-83256380D02*
X120612819Y-83161142D01*
X120612819Y-83161142D02*
X120660438Y-83018285D01*
X120660438Y-83018285D02*
X120708057Y-82970666D01*
X120612819Y-82637332D02*
X120612819Y-82018285D01*
X120612819Y-82018285D02*
X120993771Y-82351618D01*
X120993771Y-82351618D02*
X120993771Y-82208761D01*
X120993771Y-82208761D02*
X121041390Y-82113523D01*
X121041390Y-82113523D02*
X121089009Y-82065904D01*
X121089009Y-82065904D02*
X121184247Y-82018285D01*
X121184247Y-82018285D02*
X121422342Y-82018285D01*
X121422342Y-82018285D02*
X121517580Y-82065904D01*
X121517580Y-82065904D02*
X121565200Y-82113523D01*
X121565200Y-82113523D02*
X121612819Y-82208761D01*
X121612819Y-82208761D02*
X121612819Y-82494475D01*
X121612819Y-82494475D02*
X121565200Y-82589713D01*
X121565200Y-82589713D02*
X121517580Y-82637332D01*
D12*
X120756000Y-66582936D02*
X120756000Y-68037064D01*
X122576000Y-66582936D02*
X122576000Y-68037064D01*
X81405001Y-81415000D02*
X81405001Y-83685000D01*
X81405001Y-83685000D02*
X85290001Y-83685000D01*
X85290001Y-81415000D02*
X81405001Y-81415000D01*
X104500000Y-75488748D02*
X104500000Y-76911252D01*
X106320000Y-75488748D02*
X106320000Y-76911252D01*
X104500000Y-70408748D02*
X104500000Y-71831252D01*
X106320000Y-70408748D02*
X106320000Y-71831252D01*
X81465999Y-71020000D02*
X83416000Y-71020000D01*
X81465999Y-78840000D02*
X81465999Y-71020000D01*
X81465999Y-78840000D02*
X83416000Y-78840000D01*
X85636000Y-71020000D02*
X88866001Y-71020000D01*
X85636000Y-78840000D02*
X88866001Y-78840000D01*
X90786000Y-71739999D02*
X90786000Y-72820000D01*
X90786000Y-72820000D02*
X91216000Y-72820000D01*
X90786000Y-77040000D02*
X90786000Y-78120001D01*
X123833000Y-65710000D02*
X123833000Y-69595000D01*
X123833000Y-69595000D02*
X126103000Y-69595000D01*
X126103000Y-69595000D02*
X126103000Y-65710000D01*
X96448000Y-69995999D02*
X100208000Y-69996000D01*
X96448000Y-76816001D02*
X100208000Y-76816000D01*
X100208000Y-69996000D02*
X100208000Y-71255999D01*
X100208000Y-76816000D02*
X100208000Y-75556001D01*
X95168000Y-70096000D02*
X94928000Y-69766000D01*
X95408000Y-69766000D01*
X95168000Y-70096000D01*
G36*
X95168000Y-70096000D02*
G01*
X94928000Y-69766000D01*
X95408000Y-69766000D01*
X95168000Y-70096000D01*
G37*
X82220000Y-68445000D02*
X86105000Y-68445000D01*
X86105000Y-66175000D02*
X82220000Y-66175000D01*
X86105000Y-68445000D02*
X86105000Y-66175000D01*
X128269999Y-66294000D02*
X128270000Y-65024000D01*
X128270000Y-65024000D02*
X129540000Y-65023999D01*
X130582929Y-68454000D02*
X130980000Y-68454000D01*
X130582929Y-69214000D02*
X130980000Y-69214000D01*
X130582929Y-70994000D02*
X130980000Y-70994000D01*
X130582929Y-71754000D02*
X130980000Y-71754000D01*
X130582929Y-73534000D02*
X130980000Y-73534000D01*
X130582929Y-74294000D02*
X130980000Y-74294000D01*
X130582929Y-76074000D02*
X130980000Y-76074000D01*
X130582929Y-76834000D02*
X130980000Y-76834000D01*
X130650000Y-65914000D02*
X130980000Y-65914000D01*
X130650000Y-66674000D02*
X130980000Y-66674000D01*
X130980000Y-64964000D02*
X130980000Y-77784000D01*
X130980000Y-67564000D02*
X133640000Y-67564000D01*
X130980000Y-70104000D02*
X133640000Y-70104000D01*
X130980000Y-72644000D02*
X133640000Y-72644000D01*
X130980000Y-75184000D02*
X133640000Y-75184000D01*
X130980000Y-77784000D02*
X133640000Y-77784000D01*
X133640000Y-64964000D02*
X130980000Y-64964000D01*
X133640000Y-65914000D02*
X139640000Y-65914000D01*
X133640000Y-65974000D02*
X139640000Y-65974000D01*
X133640000Y-66094000D02*
X139640000Y-66094000D01*
X133640000Y-66214000D02*
X139640000Y-66214000D01*
X133640000Y-66334000D02*
X139640000Y-66334000D01*
X133640000Y-66454000D02*
X139640000Y-66454001D01*
X133640000Y-66574000D02*
X139640000Y-66573999D01*
X133640000Y-68454000D02*
X139640000Y-68454000D01*
X133640000Y-70994000D02*
X139640000Y-70993999D01*
X133640000Y-73534000D02*
X139640000Y-73534001D01*
X133640000Y-76074000D02*
X139640000Y-76074000D01*
X133640000Y-77784000D02*
X133640000Y-64964000D01*
X139640000Y-65914000D02*
X139640000Y-66674000D01*
X139640000Y-66674000D02*
X133640000Y-66674000D01*
X139640000Y-68454000D02*
X139640000Y-69214000D01*
X139640000Y-69214000D02*
X133640000Y-69214000D01*
X139640000Y-70993999D02*
X139640000Y-71754001D01*
X139640000Y-71754001D02*
X133640000Y-71754000D01*
X139640000Y-73534001D02*
X139640000Y-74294000D01*
X139640000Y-74294000D02*
X133640000Y-74294000D01*
X139640000Y-76074000D02*
X139640000Y-76834000D01*
X139640000Y-76834000D02*
X133640000Y-76834000D01*
X128778000Y-79482001D02*
X126828000Y-79482000D01*
X128778000Y-79482001D02*
X130728000Y-79482000D01*
X128778000Y-84601999D02*
X126828000Y-84602000D01*
X128778000Y-84601999D02*
X130728000Y-84602000D01*
X131717999Y-84837000D02*
X131238000Y-84837000D01*
X131478000Y-84507000D01*
X131717999Y-84837000D01*
G36*
X131717999Y-84837000D02*
G01*
X131238000Y-84837000D01*
X131478000Y-84507000D01*
X131717999Y-84837000D01*
G37*
X88188748Y-66400000D02*
X89611252Y-66400000D01*
X88188748Y-68220000D02*
X89611252Y-68220000D01*
X111226689Y-75184000D02*
X111438821Y-74971868D01*
X111438821Y-75396132D02*
X111226689Y-75184000D01*
X116119868Y-80077179D02*
X116332000Y-80289311D01*
X116332000Y-70078689D02*
X116119868Y-70290821D01*
X116332000Y-80289311D02*
X116544132Y-80077179D01*
X116544132Y-70290821D02*
X116332000Y-70078689D01*
X121225179Y-74971868D02*
X121437311Y-75184000D01*
X121437311Y-75184000D02*
X121225179Y-75396132D01*
X116266593Y-69772865D02*
X115693836Y-69864789D01*
X115785760Y-69292033D01*
X116266593Y-69772865D01*
G36*
X116266593Y-69772865D02*
G01*
X115693836Y-69864789D01*
X115785760Y-69292033D01*
X116266593Y-69772865D01*
G37*
X108310000Y-70408748D02*
X108310000Y-71831252D01*
X110130000Y-70408748D02*
X110130000Y-71831252D01*
X88172936Y-81640000D02*
X89627064Y-81640000D01*
X88172936Y-83460000D02*
X89627064Y-83460000D01*
X122026000Y-82092748D02*
X122026000Y-83515252D01*
X123846000Y-82092748D02*
X123846000Y-83515252D01*
%LPC*%
D13*
X121666000Y-65847500D03*
X121666000Y-68772500D03*
D14*
X82290002Y-82550000D03*
X85090000Y-82550000D03*
D15*
X105410000Y-74724999D03*
X105410000Y-77675001D03*
X105410000Y-69644999D03*
X105410000Y-72595001D03*
D16*
X87376000Y-72730000D03*
X87376000Y-77130000D03*
D17*
X90076000Y-73330000D03*
X90076000Y-74130000D03*
X90076000Y-74930000D03*
X90076000Y-75730000D03*
X90076000Y-76530000D03*
D18*
X89976000Y-70480000D03*
X84526000Y-70480000D03*
X89976000Y-79380000D03*
X84526000Y-79380000D03*
D19*
X124968000Y-68709999D03*
X124968000Y-65910001D03*
D20*
X95148000Y-71106000D03*
X95148001Y-73406000D03*
D21*
X101447999Y-73406000D03*
D20*
X95148000Y-75706000D03*
D22*
X85219999Y-67310000D03*
X82420001Y-67310000D03*
D23*
X129540000Y-66294000D03*
D24*
X129540000Y-68834000D03*
X129540000Y-71373999D03*
X129540000Y-73914000D03*
X129540000Y-76454000D03*
D25*
X131253000Y-83947000D03*
X131253000Y-82677000D03*
X131253000Y-81407000D03*
X131253000Y-80137000D03*
X126303000Y-80137000D03*
X126303000Y-81407000D03*
X126303000Y-82677000D03*
X126303000Y-83947000D03*
D26*
X87424999Y-67310000D03*
X90375001Y-67310000D03*
D27*
X115359728Y-70251930D03*
X114794043Y-70817616D03*
X114228357Y-71383301D03*
X113662672Y-71948986D03*
X113096986Y-72514672D03*
X112531301Y-73080357D03*
X111965616Y-73646043D03*
X111399930Y-74211728D03*
D28*
X111399930Y-76156272D03*
X111965616Y-76721957D03*
X112531301Y-77287643D03*
X113096986Y-77853328D03*
X113662672Y-78419014D03*
X114228357Y-78984699D03*
X114794043Y-79550384D03*
X115359728Y-80116070D03*
D27*
X117304272Y-80116070D03*
X117869957Y-79550384D03*
X118435643Y-78984699D03*
X119001328Y-78419014D03*
X119567014Y-77853328D03*
X120132699Y-77287643D03*
X120698384Y-76721957D03*
X121264070Y-76156272D03*
D28*
X121264070Y-74211728D03*
X120698384Y-73646043D03*
X120132699Y-73080357D03*
X119567014Y-72514672D03*
X119001328Y-71948986D03*
X118435643Y-71383301D03*
X117869957Y-70817616D03*
X117304272Y-70251930D03*
D15*
X109220000Y-69644999D03*
X109220000Y-72595001D03*
D29*
X87437500Y-82550000D03*
X90362500Y-82550000D03*
D15*
X122936000Y-81328999D03*
X122936000Y-84279001D03*
D23*
X93980000Y-66040000D03*
D24*
X96520000Y-66040000D03*
X99059999Y-66040000D03*
X101600000Y-66040000D03*
X104140000Y-66040000D03*
X106680000Y-66040000D03*
X109220000Y-66040000D03*
X111760001Y-66040000D03*
X114300000Y-66040000D03*
X116840000Y-66040000D03*
D23*
X93980000Y-83820000D03*
D24*
X96520000Y-83820000D03*
X99059999Y-83820000D03*
X101600000Y-83820000D03*
X104140000Y-83820000D03*
X106680000Y-83820000D03*
X109220000Y-83820000D03*
X111760001Y-83820000D03*
X114300000Y-83820000D03*
X116840000Y-83820000D03*
%LPD*%
M02*
