%TF.GenerationSoftware,KiCad,Pcbnew,8.0.3*%
%TF.CreationDate,2024-06-24T13:26:42+02:00*%
%TF.ProjectId,LimbusZero,4c696d62-7573-45a6-9572-6f2e6b696361,v.0.1*%
%TF.SameCoordinates,Original*%
%TF.FileFunction,Drillmap*%
%TF.FilePolarity,Positive*%
%FSLAX45Y45*%
G04 Gerber Fmt 4.5, Leading zero omitted, Abs format (unit mm)*
G04 Created by KiCad (PCBNEW 8.0.3) date 2024-06-24 13:26:42*
%MOMM*%
%LPD*%
G01*
G04 APERTURE LIST*
%ADD10C,0.050000*%
%ADD11C,0.200000*%
%ADD12C,0.100000*%
G04 APERTURE END LIST*
D10*
X8128000Y-6413500D02*
X13970000Y-6413500D01*
X13970000Y-8572500D01*
X8128000Y-8572500D01*
X8128000Y-6413500D01*
D11*
D12*
X8687600Y-7223000D02*
X8787600Y-7323000D01*
X8787600Y-7223000D02*
X8687600Y-7323000D01*
X8687600Y-7663000D02*
X8787600Y-7763000D01*
X8787600Y-7663000D02*
X8687600Y-7763000D01*
D11*
X8386277Y-8886484D02*
X8386277Y-8686484D01*
X8386277Y-8686484D02*
X8433896Y-8686484D01*
X8433896Y-8686484D02*
X8462467Y-8696008D01*
X8462467Y-8696008D02*
X8481515Y-8715055D01*
X8481515Y-8715055D02*
X8491039Y-8734103D01*
X8491039Y-8734103D02*
X8500563Y-8772198D01*
X8500563Y-8772198D02*
X8500563Y-8800770D01*
X8500563Y-8800770D02*
X8491039Y-8838865D01*
X8491039Y-8838865D02*
X8481515Y-8857912D01*
X8481515Y-8857912D02*
X8462467Y-8876960D01*
X8462467Y-8876960D02*
X8433896Y-8886484D01*
X8433896Y-8886484D02*
X8386277Y-8886484D01*
X8586277Y-8886484D02*
X8586277Y-8753150D01*
X8586277Y-8791246D02*
X8595801Y-8772198D01*
X8595801Y-8772198D02*
X8605324Y-8762674D01*
X8605324Y-8762674D02*
X8624372Y-8753150D01*
X8624372Y-8753150D02*
X8643420Y-8753150D01*
X8710086Y-8886484D02*
X8710086Y-8753150D01*
X8710086Y-8686484D02*
X8700563Y-8696008D01*
X8700563Y-8696008D02*
X8710086Y-8705531D01*
X8710086Y-8705531D02*
X8719610Y-8696008D01*
X8719610Y-8696008D02*
X8710086Y-8686484D01*
X8710086Y-8686484D02*
X8710086Y-8705531D01*
X8833896Y-8886484D02*
X8814848Y-8876960D01*
X8814848Y-8876960D02*
X8805324Y-8857912D01*
X8805324Y-8857912D02*
X8805324Y-8686484D01*
X8938658Y-8886484D02*
X8919610Y-8876960D01*
X8919610Y-8876960D02*
X8910086Y-8857912D01*
X8910086Y-8857912D02*
X8910086Y-8686484D01*
X9167229Y-8886484D02*
X9167229Y-8686484D01*
X9167229Y-8686484D02*
X9233896Y-8829341D01*
X9233896Y-8829341D02*
X9300563Y-8686484D01*
X9300563Y-8686484D02*
X9300563Y-8886484D01*
X9481515Y-8886484D02*
X9481515Y-8781722D01*
X9481515Y-8781722D02*
X9471991Y-8762674D01*
X9471991Y-8762674D02*
X9452944Y-8753150D01*
X9452944Y-8753150D02*
X9414848Y-8753150D01*
X9414848Y-8753150D02*
X9395801Y-8762674D01*
X9481515Y-8876960D02*
X9462467Y-8886484D01*
X9462467Y-8886484D02*
X9414848Y-8886484D01*
X9414848Y-8886484D02*
X9395801Y-8876960D01*
X9395801Y-8876960D02*
X9386277Y-8857912D01*
X9386277Y-8857912D02*
X9386277Y-8838865D01*
X9386277Y-8838865D02*
X9395801Y-8819817D01*
X9395801Y-8819817D02*
X9414848Y-8810293D01*
X9414848Y-8810293D02*
X9462467Y-8810293D01*
X9462467Y-8810293D02*
X9481515Y-8800770D01*
X9576753Y-8753150D02*
X9576753Y-8953150D01*
X9576753Y-8762674D02*
X9595801Y-8753150D01*
X9595801Y-8753150D02*
X9633896Y-8753150D01*
X9633896Y-8753150D02*
X9652944Y-8762674D01*
X9652944Y-8762674D02*
X9662467Y-8772198D01*
X9662467Y-8772198D02*
X9671991Y-8791246D01*
X9671991Y-8791246D02*
X9671991Y-8848389D01*
X9671991Y-8848389D02*
X9662467Y-8867436D01*
X9662467Y-8867436D02*
X9652944Y-8876960D01*
X9652944Y-8876960D02*
X9633896Y-8886484D01*
X9633896Y-8886484D02*
X9595801Y-8886484D01*
X9595801Y-8886484D02*
X9576753Y-8876960D01*
X9757705Y-8867436D02*
X9767229Y-8876960D01*
X9767229Y-8876960D02*
X9757705Y-8886484D01*
X9757705Y-8886484D02*
X9748182Y-8876960D01*
X9748182Y-8876960D02*
X9757705Y-8867436D01*
X9757705Y-8867436D02*
X9757705Y-8886484D01*
X9757705Y-8762674D02*
X9767229Y-8772198D01*
X9767229Y-8772198D02*
X9757705Y-8781722D01*
X9757705Y-8781722D02*
X9748182Y-8772198D01*
X9748182Y-8772198D02*
X9757705Y-8762674D01*
X9757705Y-8762674D02*
X9757705Y-8781722D01*
D12*
X8025500Y-9165000D02*
X8125500Y-9265000D01*
X8125500Y-9165000D02*
X8025500Y-9265000D01*
D11*
X8491039Y-9306484D02*
X8376753Y-9306484D01*
X8433896Y-9306484D02*
X8433896Y-9106484D01*
X8433896Y-9106484D02*
X8414848Y-9135055D01*
X8414848Y-9135055D02*
X8395801Y-9154103D01*
X8395801Y-9154103D02*
X8376753Y-9163627D01*
X8576753Y-9287436D02*
X8586277Y-9296960D01*
X8586277Y-9296960D02*
X8576753Y-9306484D01*
X8576753Y-9306484D02*
X8567229Y-9296960D01*
X8567229Y-9296960D02*
X8576753Y-9287436D01*
X8576753Y-9287436D02*
X8576753Y-9306484D01*
X8710086Y-9106484D02*
X8729134Y-9106484D01*
X8729134Y-9106484D02*
X8748182Y-9116008D01*
X8748182Y-9116008D02*
X8757705Y-9125531D01*
X8757705Y-9125531D02*
X8767229Y-9144579D01*
X8767229Y-9144579D02*
X8776753Y-9182674D01*
X8776753Y-9182674D02*
X8776753Y-9230293D01*
X8776753Y-9230293D02*
X8767229Y-9268389D01*
X8767229Y-9268389D02*
X8757705Y-9287436D01*
X8757705Y-9287436D02*
X8748182Y-9296960D01*
X8748182Y-9296960D02*
X8729134Y-9306484D01*
X8729134Y-9306484D02*
X8710086Y-9306484D01*
X8710086Y-9306484D02*
X8691039Y-9296960D01*
X8691039Y-9296960D02*
X8681515Y-9287436D01*
X8681515Y-9287436D02*
X8671991Y-9268389D01*
X8671991Y-9268389D02*
X8662467Y-9230293D01*
X8662467Y-9230293D02*
X8662467Y-9182674D01*
X8662467Y-9182674D02*
X8671991Y-9144579D01*
X8671991Y-9144579D02*
X8681515Y-9125531D01*
X8681515Y-9125531D02*
X8691039Y-9116008D01*
X8691039Y-9116008D02*
X8710086Y-9106484D01*
X8900563Y-9106484D02*
X8919610Y-9106484D01*
X8919610Y-9106484D02*
X8938658Y-9116008D01*
X8938658Y-9116008D02*
X8948182Y-9125531D01*
X8948182Y-9125531D02*
X8957705Y-9144579D01*
X8957705Y-9144579D02*
X8967229Y-9182674D01*
X8967229Y-9182674D02*
X8967229Y-9230293D01*
X8967229Y-9230293D02*
X8957705Y-9268389D01*
X8957705Y-9268389D02*
X8948182Y-9287436D01*
X8948182Y-9287436D02*
X8938658Y-9296960D01*
X8938658Y-9296960D02*
X8919610Y-9306484D01*
X8919610Y-9306484D02*
X8900563Y-9306484D01*
X8900563Y-9306484D02*
X8881515Y-9296960D01*
X8881515Y-9296960D02*
X8871991Y-9287436D01*
X8871991Y-9287436D02*
X8862467Y-9268389D01*
X8862467Y-9268389D02*
X8852944Y-9230293D01*
X8852944Y-9230293D02*
X8852944Y-9182674D01*
X8852944Y-9182674D02*
X8862467Y-9144579D01*
X8862467Y-9144579D02*
X8871991Y-9125531D01*
X8871991Y-9125531D02*
X8881515Y-9116008D01*
X8881515Y-9116008D02*
X8900563Y-9106484D01*
X9091039Y-9106484D02*
X9110086Y-9106484D01*
X9110086Y-9106484D02*
X9129134Y-9116008D01*
X9129134Y-9116008D02*
X9138658Y-9125531D01*
X9138658Y-9125531D02*
X9148182Y-9144579D01*
X9148182Y-9144579D02*
X9157705Y-9182674D01*
X9157705Y-9182674D02*
X9157705Y-9230293D01*
X9157705Y-9230293D02*
X9148182Y-9268389D01*
X9148182Y-9268389D02*
X9138658Y-9287436D01*
X9138658Y-9287436D02*
X9129134Y-9296960D01*
X9129134Y-9296960D02*
X9110086Y-9306484D01*
X9110086Y-9306484D02*
X9091039Y-9306484D01*
X9091039Y-9306484D02*
X9071991Y-9296960D01*
X9071991Y-9296960D02*
X9062467Y-9287436D01*
X9062467Y-9287436D02*
X9052944Y-9268389D01*
X9052944Y-9268389D02*
X9043420Y-9230293D01*
X9043420Y-9230293D02*
X9043420Y-9182674D01*
X9043420Y-9182674D02*
X9052944Y-9144579D01*
X9052944Y-9144579D02*
X9062467Y-9125531D01*
X9062467Y-9125531D02*
X9071991Y-9116008D01*
X9071991Y-9116008D02*
X9091039Y-9106484D01*
X9243420Y-9306484D02*
X9243420Y-9173150D01*
X9243420Y-9192198D02*
X9252944Y-9182674D01*
X9252944Y-9182674D02*
X9271991Y-9173150D01*
X9271991Y-9173150D02*
X9300563Y-9173150D01*
X9300563Y-9173150D02*
X9319610Y-9182674D01*
X9319610Y-9182674D02*
X9329134Y-9201722D01*
X9329134Y-9201722D02*
X9329134Y-9306484D01*
X9329134Y-9201722D02*
X9338658Y-9182674D01*
X9338658Y-9182674D02*
X9357705Y-9173150D01*
X9357705Y-9173150D02*
X9386277Y-9173150D01*
X9386277Y-9173150D02*
X9405325Y-9182674D01*
X9405325Y-9182674D02*
X9414848Y-9201722D01*
X9414848Y-9201722D02*
X9414848Y-9306484D01*
X9510086Y-9306484D02*
X9510086Y-9173150D01*
X9510086Y-9192198D02*
X9519610Y-9182674D01*
X9519610Y-9182674D02*
X9538658Y-9173150D01*
X9538658Y-9173150D02*
X9567229Y-9173150D01*
X9567229Y-9173150D02*
X9586277Y-9182674D01*
X9586277Y-9182674D02*
X9595801Y-9201722D01*
X9595801Y-9201722D02*
X9595801Y-9306484D01*
X9595801Y-9201722D02*
X9605325Y-9182674D01*
X9605325Y-9182674D02*
X9624372Y-9173150D01*
X9624372Y-9173150D02*
X9652944Y-9173150D01*
X9652944Y-9173150D02*
X9671991Y-9182674D01*
X9671991Y-9182674D02*
X9681515Y-9201722D01*
X9681515Y-9201722D02*
X9681515Y-9306484D01*
X10071991Y-9096960D02*
X9900563Y-9354103D01*
X10329134Y-9106484D02*
X10348182Y-9106484D01*
X10348182Y-9106484D02*
X10367229Y-9116008D01*
X10367229Y-9116008D02*
X10376753Y-9125531D01*
X10376753Y-9125531D02*
X10386277Y-9144579D01*
X10386277Y-9144579D02*
X10395801Y-9182674D01*
X10395801Y-9182674D02*
X10395801Y-9230293D01*
X10395801Y-9230293D02*
X10386277Y-9268389D01*
X10386277Y-9268389D02*
X10376753Y-9287436D01*
X10376753Y-9287436D02*
X10367229Y-9296960D01*
X10367229Y-9296960D02*
X10348182Y-9306484D01*
X10348182Y-9306484D02*
X10329134Y-9306484D01*
X10329134Y-9306484D02*
X10310087Y-9296960D01*
X10310087Y-9296960D02*
X10300563Y-9287436D01*
X10300563Y-9287436D02*
X10291039Y-9268389D01*
X10291039Y-9268389D02*
X10281515Y-9230293D01*
X10281515Y-9230293D02*
X10281515Y-9182674D01*
X10281515Y-9182674D02*
X10291039Y-9144579D01*
X10291039Y-9144579D02*
X10300563Y-9125531D01*
X10300563Y-9125531D02*
X10310087Y-9116008D01*
X10310087Y-9116008D02*
X10329134Y-9106484D01*
X10481515Y-9287436D02*
X10491039Y-9296960D01*
X10491039Y-9296960D02*
X10481515Y-9306484D01*
X10481515Y-9306484D02*
X10471991Y-9296960D01*
X10471991Y-9296960D02*
X10481515Y-9287436D01*
X10481515Y-9287436D02*
X10481515Y-9306484D01*
X10614848Y-9106484D02*
X10633896Y-9106484D01*
X10633896Y-9106484D02*
X10652944Y-9116008D01*
X10652944Y-9116008D02*
X10662468Y-9125531D01*
X10662468Y-9125531D02*
X10671991Y-9144579D01*
X10671991Y-9144579D02*
X10681515Y-9182674D01*
X10681515Y-9182674D02*
X10681515Y-9230293D01*
X10681515Y-9230293D02*
X10671991Y-9268389D01*
X10671991Y-9268389D02*
X10662468Y-9287436D01*
X10662468Y-9287436D02*
X10652944Y-9296960D01*
X10652944Y-9296960D02*
X10633896Y-9306484D01*
X10633896Y-9306484D02*
X10614848Y-9306484D01*
X10614848Y-9306484D02*
X10595801Y-9296960D01*
X10595801Y-9296960D02*
X10586277Y-9287436D01*
X10586277Y-9287436D02*
X10576753Y-9268389D01*
X10576753Y-9268389D02*
X10567229Y-9230293D01*
X10567229Y-9230293D02*
X10567229Y-9182674D01*
X10567229Y-9182674D02*
X10576753Y-9144579D01*
X10576753Y-9144579D02*
X10586277Y-9125531D01*
X10586277Y-9125531D02*
X10595801Y-9116008D01*
X10595801Y-9116008D02*
X10614848Y-9106484D01*
X10748182Y-9106484D02*
X10871991Y-9106484D01*
X10871991Y-9106484D02*
X10805325Y-9182674D01*
X10805325Y-9182674D02*
X10833896Y-9182674D01*
X10833896Y-9182674D02*
X10852944Y-9192198D01*
X10852944Y-9192198D02*
X10862468Y-9201722D01*
X10862468Y-9201722D02*
X10871991Y-9220770D01*
X10871991Y-9220770D02*
X10871991Y-9268389D01*
X10871991Y-9268389D02*
X10862468Y-9287436D01*
X10862468Y-9287436D02*
X10852944Y-9296960D01*
X10852944Y-9296960D02*
X10833896Y-9306484D01*
X10833896Y-9306484D02*
X10776753Y-9306484D01*
X10776753Y-9306484D02*
X10757706Y-9296960D01*
X10757706Y-9296960D02*
X10748182Y-9287436D01*
X10967229Y-9306484D02*
X11005325Y-9306484D01*
X11005325Y-9306484D02*
X11024372Y-9296960D01*
X11024372Y-9296960D02*
X11033896Y-9287436D01*
X11033896Y-9287436D02*
X11052944Y-9258865D01*
X11052944Y-9258865D02*
X11062468Y-9220770D01*
X11062468Y-9220770D02*
X11062468Y-9144579D01*
X11062468Y-9144579D02*
X11052944Y-9125531D01*
X11052944Y-9125531D02*
X11043420Y-9116008D01*
X11043420Y-9116008D02*
X11024372Y-9106484D01*
X11024372Y-9106484D02*
X10986277Y-9106484D01*
X10986277Y-9106484D02*
X10967229Y-9116008D01*
X10967229Y-9116008D02*
X10957706Y-9125531D01*
X10957706Y-9125531D02*
X10948182Y-9144579D01*
X10948182Y-9144579D02*
X10948182Y-9192198D01*
X10948182Y-9192198D02*
X10957706Y-9211246D01*
X10957706Y-9211246D02*
X10967229Y-9220770D01*
X10967229Y-9220770D02*
X10986277Y-9230293D01*
X10986277Y-9230293D02*
X11024372Y-9230293D01*
X11024372Y-9230293D02*
X11043420Y-9220770D01*
X11043420Y-9220770D02*
X11052944Y-9211246D01*
X11052944Y-9211246D02*
X11062468Y-9192198D01*
X11233896Y-9173150D02*
X11233896Y-9306484D01*
X11186277Y-9096960D02*
X11138658Y-9239817D01*
X11138658Y-9239817D02*
X11262467Y-9239817D01*
X11329134Y-9106484D02*
X11329134Y-9144579D01*
X11405325Y-9106484D02*
X11405325Y-9144579D01*
X11700563Y-9382674D02*
X11691039Y-9373150D01*
X11691039Y-9373150D02*
X11671991Y-9344579D01*
X11671991Y-9344579D02*
X11662468Y-9325531D01*
X11662468Y-9325531D02*
X11652944Y-9296960D01*
X11652944Y-9296960D02*
X11643420Y-9249341D01*
X11643420Y-9249341D02*
X11643420Y-9211246D01*
X11643420Y-9211246D02*
X11652944Y-9163627D01*
X11652944Y-9163627D02*
X11662468Y-9135055D01*
X11662468Y-9135055D02*
X11671991Y-9116008D01*
X11671991Y-9116008D02*
X11691039Y-9087436D01*
X11691039Y-9087436D02*
X11700563Y-9077912D01*
X11767229Y-9125531D02*
X11776753Y-9116008D01*
X11776753Y-9116008D02*
X11795801Y-9106484D01*
X11795801Y-9106484D02*
X11843420Y-9106484D01*
X11843420Y-9106484D02*
X11862468Y-9116008D01*
X11862468Y-9116008D02*
X11871991Y-9125531D01*
X11871991Y-9125531D02*
X11881515Y-9144579D01*
X11881515Y-9144579D02*
X11881515Y-9163627D01*
X11881515Y-9163627D02*
X11871991Y-9192198D01*
X11871991Y-9192198D02*
X11757706Y-9306484D01*
X11757706Y-9306484D02*
X11881515Y-9306484D01*
X12119610Y-9306484D02*
X12119610Y-9106484D01*
X12205325Y-9306484D02*
X12205325Y-9201722D01*
X12205325Y-9201722D02*
X12195801Y-9182674D01*
X12195801Y-9182674D02*
X12176753Y-9173150D01*
X12176753Y-9173150D02*
X12148182Y-9173150D01*
X12148182Y-9173150D02*
X12129134Y-9182674D01*
X12129134Y-9182674D02*
X12119610Y-9192198D01*
X12329134Y-9306484D02*
X12310087Y-9296960D01*
X12310087Y-9296960D02*
X12300563Y-9287436D01*
X12300563Y-9287436D02*
X12291039Y-9268389D01*
X12291039Y-9268389D02*
X12291039Y-9211246D01*
X12291039Y-9211246D02*
X12300563Y-9192198D01*
X12300563Y-9192198D02*
X12310087Y-9182674D01*
X12310087Y-9182674D02*
X12329134Y-9173150D01*
X12329134Y-9173150D02*
X12357706Y-9173150D01*
X12357706Y-9173150D02*
X12376753Y-9182674D01*
X12376753Y-9182674D02*
X12386277Y-9192198D01*
X12386277Y-9192198D02*
X12395801Y-9211246D01*
X12395801Y-9211246D02*
X12395801Y-9268389D01*
X12395801Y-9268389D02*
X12386277Y-9287436D01*
X12386277Y-9287436D02*
X12376753Y-9296960D01*
X12376753Y-9296960D02*
X12357706Y-9306484D01*
X12357706Y-9306484D02*
X12329134Y-9306484D01*
X12510087Y-9306484D02*
X12491039Y-9296960D01*
X12491039Y-9296960D02*
X12481515Y-9277912D01*
X12481515Y-9277912D02*
X12481515Y-9106484D01*
X12662468Y-9296960D02*
X12643420Y-9306484D01*
X12643420Y-9306484D02*
X12605325Y-9306484D01*
X12605325Y-9306484D02*
X12586277Y-9296960D01*
X12586277Y-9296960D02*
X12576753Y-9277912D01*
X12576753Y-9277912D02*
X12576753Y-9201722D01*
X12576753Y-9201722D02*
X12586277Y-9182674D01*
X12586277Y-9182674D02*
X12605325Y-9173150D01*
X12605325Y-9173150D02*
X12643420Y-9173150D01*
X12643420Y-9173150D02*
X12662468Y-9182674D01*
X12662468Y-9182674D02*
X12671991Y-9201722D01*
X12671991Y-9201722D02*
X12671991Y-9220770D01*
X12671991Y-9220770D02*
X12576753Y-9239817D01*
X12748182Y-9296960D02*
X12767230Y-9306484D01*
X12767230Y-9306484D02*
X12805325Y-9306484D01*
X12805325Y-9306484D02*
X12824372Y-9296960D01*
X12824372Y-9296960D02*
X12833896Y-9277912D01*
X12833896Y-9277912D02*
X12833896Y-9268389D01*
X12833896Y-9268389D02*
X12824372Y-9249341D01*
X12824372Y-9249341D02*
X12805325Y-9239817D01*
X12805325Y-9239817D02*
X12776753Y-9239817D01*
X12776753Y-9239817D02*
X12757706Y-9230293D01*
X12757706Y-9230293D02*
X12748182Y-9211246D01*
X12748182Y-9211246D02*
X12748182Y-9201722D01*
X12748182Y-9201722D02*
X12757706Y-9182674D01*
X12757706Y-9182674D02*
X12776753Y-9173150D01*
X12776753Y-9173150D02*
X12805325Y-9173150D01*
X12805325Y-9173150D02*
X12824372Y-9182674D01*
X12900563Y-9382674D02*
X12910087Y-9373150D01*
X12910087Y-9373150D02*
X12929134Y-9344579D01*
X12929134Y-9344579D02*
X12938658Y-9325531D01*
X12938658Y-9325531D02*
X12948182Y-9296960D01*
X12948182Y-9296960D02*
X12957706Y-9249341D01*
X12957706Y-9249341D02*
X12957706Y-9211246D01*
X12957706Y-9211246D02*
X12948182Y-9163627D01*
X12948182Y-9163627D02*
X12938658Y-9135055D01*
X12938658Y-9135055D02*
X12929134Y-9116008D01*
X12929134Y-9116008D02*
X12910087Y-9087436D01*
X12910087Y-9087436D02*
X12900563Y-9077912D01*
X13262468Y-9382674D02*
X13252944Y-9373150D01*
X13252944Y-9373150D02*
X13233896Y-9344579D01*
X13233896Y-9344579D02*
X13224372Y-9325531D01*
X13224372Y-9325531D02*
X13214849Y-9296960D01*
X13214849Y-9296960D02*
X13205325Y-9249341D01*
X13205325Y-9249341D02*
X13205325Y-9211246D01*
X13205325Y-9211246D02*
X13214849Y-9163627D01*
X13214849Y-9163627D02*
X13224372Y-9135055D01*
X13224372Y-9135055D02*
X13233896Y-9116008D01*
X13233896Y-9116008D02*
X13252944Y-9087436D01*
X13252944Y-9087436D02*
X13262468Y-9077912D01*
X13338658Y-9173150D02*
X13338658Y-9306484D01*
X13338658Y-9192198D02*
X13348182Y-9182674D01*
X13348182Y-9182674D02*
X13367230Y-9173150D01*
X13367230Y-9173150D02*
X13395801Y-9173150D01*
X13395801Y-9173150D02*
X13414849Y-9182674D01*
X13414849Y-9182674D02*
X13424372Y-9201722D01*
X13424372Y-9201722D02*
X13424372Y-9306484D01*
X13548182Y-9306484D02*
X13529134Y-9296960D01*
X13529134Y-9296960D02*
X13519611Y-9287436D01*
X13519611Y-9287436D02*
X13510087Y-9268389D01*
X13510087Y-9268389D02*
X13510087Y-9211246D01*
X13510087Y-9211246D02*
X13519611Y-9192198D01*
X13519611Y-9192198D02*
X13529134Y-9182674D01*
X13529134Y-9182674D02*
X13548182Y-9173150D01*
X13548182Y-9173150D02*
X13576753Y-9173150D01*
X13576753Y-9173150D02*
X13595801Y-9182674D01*
X13595801Y-9182674D02*
X13605325Y-9192198D01*
X13605325Y-9192198D02*
X13614849Y-9211246D01*
X13614849Y-9211246D02*
X13614849Y-9268389D01*
X13614849Y-9268389D02*
X13605325Y-9287436D01*
X13605325Y-9287436D02*
X13595801Y-9296960D01*
X13595801Y-9296960D02*
X13576753Y-9306484D01*
X13576753Y-9306484D02*
X13548182Y-9306484D01*
X13671992Y-9173150D02*
X13748182Y-9173150D01*
X13700563Y-9106484D02*
X13700563Y-9277912D01*
X13700563Y-9277912D02*
X13710087Y-9296960D01*
X13710087Y-9296960D02*
X13729134Y-9306484D01*
X13729134Y-9306484D02*
X13748182Y-9306484D01*
X13967230Y-9173150D02*
X13967230Y-9373150D01*
X13967230Y-9182674D02*
X13986277Y-9173150D01*
X13986277Y-9173150D02*
X14024373Y-9173150D01*
X14024373Y-9173150D02*
X14043420Y-9182674D01*
X14043420Y-9182674D02*
X14052944Y-9192198D01*
X14052944Y-9192198D02*
X14062468Y-9211246D01*
X14062468Y-9211246D02*
X14062468Y-9268389D01*
X14062468Y-9268389D02*
X14052944Y-9287436D01*
X14052944Y-9287436D02*
X14043420Y-9296960D01*
X14043420Y-9296960D02*
X14024373Y-9306484D01*
X14024373Y-9306484D02*
X13986277Y-9306484D01*
X13986277Y-9306484D02*
X13967230Y-9296960D01*
X14176753Y-9306484D02*
X14157706Y-9296960D01*
X14157706Y-9296960D02*
X14148182Y-9277912D01*
X14148182Y-9277912D02*
X14148182Y-9106484D01*
X14338658Y-9306484D02*
X14338658Y-9201722D01*
X14338658Y-9201722D02*
X14329134Y-9182674D01*
X14329134Y-9182674D02*
X14310087Y-9173150D01*
X14310087Y-9173150D02*
X14271992Y-9173150D01*
X14271992Y-9173150D02*
X14252944Y-9182674D01*
X14338658Y-9296960D02*
X14319611Y-9306484D01*
X14319611Y-9306484D02*
X14271992Y-9306484D01*
X14271992Y-9306484D02*
X14252944Y-9296960D01*
X14252944Y-9296960D02*
X14243420Y-9277912D01*
X14243420Y-9277912D02*
X14243420Y-9258865D01*
X14243420Y-9258865D02*
X14252944Y-9239817D01*
X14252944Y-9239817D02*
X14271992Y-9230293D01*
X14271992Y-9230293D02*
X14319611Y-9230293D01*
X14319611Y-9230293D02*
X14338658Y-9220770D01*
X14405325Y-9173150D02*
X14481515Y-9173150D01*
X14433896Y-9106484D02*
X14433896Y-9277912D01*
X14433896Y-9277912D02*
X14443420Y-9296960D01*
X14443420Y-9296960D02*
X14462468Y-9306484D01*
X14462468Y-9306484D02*
X14481515Y-9306484D01*
X14624373Y-9296960D02*
X14605325Y-9306484D01*
X14605325Y-9306484D02*
X14567230Y-9306484D01*
X14567230Y-9306484D02*
X14548182Y-9296960D01*
X14548182Y-9296960D02*
X14538658Y-9277912D01*
X14538658Y-9277912D02*
X14538658Y-9201722D01*
X14538658Y-9201722D02*
X14548182Y-9182674D01*
X14548182Y-9182674D02*
X14567230Y-9173150D01*
X14567230Y-9173150D02*
X14605325Y-9173150D01*
X14605325Y-9173150D02*
X14624373Y-9182674D01*
X14624373Y-9182674D02*
X14633896Y-9201722D01*
X14633896Y-9201722D02*
X14633896Y-9220770D01*
X14633896Y-9220770D02*
X14538658Y-9239817D01*
X14805325Y-9306484D02*
X14805325Y-9106484D01*
X14805325Y-9296960D02*
X14786277Y-9306484D01*
X14786277Y-9306484D02*
X14748182Y-9306484D01*
X14748182Y-9306484D02*
X14729134Y-9296960D01*
X14729134Y-9296960D02*
X14719611Y-9287436D01*
X14719611Y-9287436D02*
X14710087Y-9268389D01*
X14710087Y-9268389D02*
X14710087Y-9211246D01*
X14710087Y-9211246D02*
X14719611Y-9192198D01*
X14719611Y-9192198D02*
X14729134Y-9182674D01*
X14729134Y-9182674D02*
X14748182Y-9173150D01*
X14748182Y-9173150D02*
X14786277Y-9173150D01*
X14786277Y-9173150D02*
X14805325Y-9182674D01*
X14881515Y-9382674D02*
X14891039Y-9373150D01*
X14891039Y-9373150D02*
X14910087Y-9344579D01*
X14910087Y-9344579D02*
X14919611Y-9325531D01*
X14919611Y-9325531D02*
X14929134Y-9296960D01*
X14929134Y-9296960D02*
X14938658Y-9249341D01*
X14938658Y-9249341D02*
X14938658Y-9211246D01*
X14938658Y-9211246D02*
X14929134Y-9163627D01*
X14929134Y-9163627D02*
X14919611Y-9135055D01*
X14919611Y-9135055D02*
X14910087Y-9116008D01*
X14910087Y-9116008D02*
X14891039Y-9087436D01*
X14891039Y-9087436D02*
X14881515Y-9077912D01*
M02*
