G04 #@! TF.GenerationSoftware,KiCad,Pcbnew,8.0.3*
G04 #@! TF.CreationDate,2024-06-24T13:25:15+02:00*
G04 #@! TF.ProjectId,LimbusZero,4c696d62-7573-45a6-9572-6f2e6b696361,v.0.1*
G04 #@! TF.SameCoordinates,Original*
G04 #@! TF.FileFunction,Paste,Top*
G04 #@! TF.FilePolarity,Positive*
%FSLAX46Y46*%
G04 Gerber Fmt 4.6, Leading zero omitted, Abs format (unit mm)*
G04 Created by KiCad (PCBNEW 8.0.3) date 2024-06-24 13:25:15*
%MOMM*%
%LPD*%
G01*
G04 APERTURE LIST*
G04 Aperture macros list*
%AMRoundRect*
0 Rectangle with rounded corners*
0 $1 Rounding radius*
0 $2 $3 $4 $5 $6 $7 $8 $9 X,Y pos of 4 corners*
0 Add a 4 corners polygon primitive as box body*
4,1,4,$2,$3,$4,$5,$6,$7,$8,$9,$2,$3,0*
0 Add four circle primitives for the rounded corners*
1,1,$1+$1,$2,$3*
1,1,$1+$1,$4,$5*
1,1,$1+$1,$6,$7*
1,1,$1+$1,$8,$9*
0 Add four rect primitives between the rounded corners*
20,1,$1+$1,$2,$3,$4,$5,0*
20,1,$1+$1,$4,$5,$6,$7,0*
20,1,$1+$1,$6,$7,$8,$9,0*
20,1,$1+$1,$8,$9,$2,$3,0*%
G04 Aperture macros list end*
%ADD10RoundRect,0.250000X-0.625000X0.312500X-0.625000X-0.312500X0.625000X-0.312500X0.625000X0.312500X0*%
%ADD11RoundRect,0.250000X-0.375000X-0.625000X0.375000X-0.625000X0.375000X0.625000X-0.375000X0.625000X0*%
%ADD12RoundRect,0.250000X-0.650000X0.325000X-0.650000X-0.325000X0.650000X-0.325000X0.650000X0.325000X0*%
%ADD13R,2.000000X0.500000*%
%ADD14R,1.700000X2.000000*%
%ADD15RoundRect,0.250000X0.625000X-0.375000X0.625000X0.375000X-0.625000X0.375000X-0.625000X-0.375000X0*%
%ADD16RoundRect,0.375000X-0.625000X-0.375000X0.625000X-0.375000X0.625000X0.375000X-0.625000X0.375000X0*%
%ADD17RoundRect,0.500000X-0.500000X-1.400000X0.500000X-1.400000X0.500000X1.400000X-0.500000X1.400000X0*%
%ADD18RoundRect,0.250000X0.375000X0.625000X-0.375000X0.625000X-0.375000X-0.625000X0.375000X-0.625000X0*%
%ADD19RoundRect,0.150000X0.825000X0.150000X-0.825000X0.150000X-0.825000X-0.150000X0.825000X-0.150000X0*%
%ADD20RoundRect,0.250000X-0.325000X-0.650000X0.325000X-0.650000X0.325000X0.650000X-0.325000X0.650000X0*%
%ADD21RoundRect,0.125000X-0.530330X0.353553X0.353553X-0.530330X0.530330X-0.353553X-0.353553X0.530330X0*%
%ADD22RoundRect,0.125000X-0.530330X-0.353553X-0.353553X-0.530330X0.530330X0.353553X0.353553X0.530330X0*%
%ADD23RoundRect,0.250000X-0.312500X-0.625000X0.312500X-0.625000X0.312500X0.625000X-0.312500X0.625000X0*%
G04 APERTURE END LIST*
D10*
X121666000Y-65847500D03*
X121666000Y-68772500D03*
D11*
X82290002Y-82550000D03*
X85090000Y-82550000D03*
D12*
X105410000Y-74724999D03*
X105410000Y-77675001D03*
X105410000Y-69644999D03*
X105410000Y-72595001D03*
D13*
X90076000Y-73330000D03*
X90076000Y-74130000D03*
X90076000Y-74930000D03*
X90076000Y-75730000D03*
X90076000Y-76530000D03*
D14*
X89976000Y-70480000D03*
X84526000Y-70480000D03*
X89976000Y-79380000D03*
X84526000Y-79380000D03*
D15*
X124968000Y-68709999D03*
X124968000Y-65910001D03*
D16*
X95148000Y-71106000D03*
X95148001Y-73406000D03*
D17*
X101447999Y-73406000D03*
D16*
X95148000Y-75706000D03*
D18*
X85219999Y-67310000D03*
X82420001Y-67310000D03*
D19*
X131253000Y-83947000D03*
X131253000Y-82677000D03*
X131253000Y-81407000D03*
X131253000Y-80137000D03*
X126303000Y-80137000D03*
X126303000Y-81407000D03*
X126303000Y-82677000D03*
X126303000Y-83947000D03*
D20*
X87424999Y-67310000D03*
X90375001Y-67310000D03*
D21*
X115359728Y-70251930D03*
X114794043Y-70817616D03*
X114228357Y-71383301D03*
X113662672Y-71948986D03*
X113096986Y-72514672D03*
X112531301Y-73080357D03*
X111965616Y-73646043D03*
X111399930Y-74211728D03*
D22*
X111399930Y-76156272D03*
X111965616Y-76721957D03*
X112531301Y-77287643D03*
X113096986Y-77853328D03*
X113662672Y-78419014D03*
X114228357Y-78984699D03*
X114794043Y-79550384D03*
X115359728Y-80116070D03*
D21*
X117304272Y-80116070D03*
X117869957Y-79550384D03*
X118435643Y-78984699D03*
X119001328Y-78419014D03*
X119567014Y-77853328D03*
X120132699Y-77287643D03*
X120698384Y-76721957D03*
X121264070Y-76156272D03*
D22*
X121264070Y-74211728D03*
X120698384Y-73646043D03*
X120132699Y-73080357D03*
X119567014Y-72514672D03*
X119001328Y-71948986D03*
X118435643Y-71383301D03*
X117869957Y-70817616D03*
X117304272Y-70251930D03*
D12*
X109220000Y-69644999D03*
X109220000Y-72595001D03*
D23*
X87437500Y-82550000D03*
X90362500Y-82550000D03*
D12*
X122936000Y-81328999D03*
X122936000Y-84279001D03*
M02*
